<svg version="1.2" xmlns="http://www.w3.org/2000/svg" viewBox="0 0 3840 2160" width="3840" height="2160">
	<title>Birds</title>
	<style>
		.s0 { fill: #0c0c0c } 
	</style>
	<g id="Birds">
		<path id="&lt;Path&gt;" class="s0" d="m3133.2 1440.4c0 0 24-5.3 32.3-3.7 8.4 1.6 8.8 0.7 12.2 4.6 3.3 3.9 11.9 10.3 13.5 9.9 1.5-0.5 5.3-1.3 6.9-0.8 1.5 0.6 1.3 2.2 4.8 0.1 3.4-2.1 10.8-6.7 16.8-6.5 6.1 0.1 20.7 6.1 23.5 8.2 2.7 2.1 5.1 3.7 4 4.1-1 0.4-5.1 1.2-7.3 0.8-2.2-0.4-4-0.7-5.2-0.8-1.3-0.1-1.7-0.3-3.5-1-1.7-0.6-1.4-0.4-3.2-1.2-1.8-0.8-1.4-1.7-4.4-1.7-3 0-3.7-0.3-5.7 0-1.9 0.3-3.5 0.4-4.9 0.8-1.3 0.3-2.8 0.6-5.3 1.1-2.5 0.5-5.7 1.5-6.5 1.8-0.8 0.3 0-1.8-1.4 1.1-1.3 3-1.8 4.2-1.8 4.2 0 0 0.6 1.1 2.6 1.9 2 0.8 2 0.8 2 0.8 0 0-1.1 2.1-3.6 2.7-2.5 0.5-5.7 1.6-6.5 1.7-0.7 0.1-5.1 0.7-7.9-0.6-2.9-1.2-5.8-4.5-6.5-4.9-0.7-0.4-0.9-1.4-0.9-1.4 0 0 4.3-0.3 5.6-0.4 1.2-0.1 3.7-0.8 3.7-0.8l0.4-2.3c0 0 2.6 1.3-2.6-1-5.3-2.3-6.7-3.1-7.7-4.5-0.9-1.4-3.6-3.4-5.9-4.2-2.3-0.7-3-1.3-5.5-1.8-2.5-0.6-3.8-0.6-3.8-0.6 0 0 2.1-0.6-2.5-0.4-4.6 0.2-5.7 0.5-7.4 0.6-1.7 0.1-2.7 0.2-4.4 0.1-1.7-0.1-2 0.1-3.1-0.2-1.2-0.3-1.3-0.4-2.6-0.8-1.4-0.4-1.7-0.2-2.7-0.6-0.9-0.4-1.4-0.6-2.5-1.2-1-0.6-2.2-1.4-2.2-1.4 0 0-1-0.2-0.8-0.7 0.2-0.5 0-1 0-1z"/>
		<path id="&lt;Path&gt;" class="s0" d="m3188.2 1487.2c0 0 9.6-2.1 13-1.5 3.4 0.6 3.5 0.3 4.9 1.9 1.3 1.5 4.8 4.1 5.4 3.9 0.6-0.1 2.2-0.5 2.8-0.3 0.6 0.2 0.5 0.9 1.9 0.1 1.4-0.9 4.4-2.7 6.8-2.7 2.5 0.1 8.4 2.5 9.5 3.3 1 0.9 2 1.5 1.6 1.7-0.4 0.2-2.1 0.5-3 0.3q-1.3-0.2-2.1-0.3c-0.5-0.1-0.6-0.1-1.4-0.4-0.7-0.2-0.5-0.2-1.3-0.5-0.7-0.3-0.5-0.7-1.7-0.7-1.3 0-1.5-0.1-2.3 0-0.8 0.2-1.4 0.2-2 0.3-0.5 0.2-1.1 0.3-2.1 0.5-1 0.2-2.3 0.6-2.6 0.7-0.4 0.1 0-0.7-0.6 0.5-0.5 1.2-0.8 1.7-0.8 1.7 0 0 0.3 0.4 1.1 0.7 0.8 0.4 0.8 0.4 0.8 0.4 0 0-0.4 0.8-1.4 1-1 0.2-2.4 0.7-2.6 0.7-0.3 0.1-2.1 0.3-3.3-0.2-1.1-0.5-2.3-1.8-2.6-2-0.3-0.2-0.3-0.6-0.3-0.6 0 0 1.7-0.1 2.2-0.1 0.5-0.1 1.5-0.4 1.5-0.4l0.2-0.9c0 0 1 0.6-1.1-0.4-2.1-0.9-2.7-1.2-3.1-1.8-0.3-0.6-1.4-1.4-2.4-1.7-0.9-0.3-1.1-0.5-2.1-0.7-1.1-0.2-1.6-0.2-1.6-0.2 0 0 0.9-0.3-1-0.2-1.8 0.1-2.3 0.2-3 0.2-0.6 0.1-1.1 0.1-1.7 0.1-0.7-0.1-0.8 0-1.3-0.1-0.5-0.1-0.5-0.2-1.1-0.3-0.5-0.2-0.6-0.1-1-0.3-0.4-0.2-0.6-0.2-1-0.5-0.4-0.2-0.9-0.5-0.9-0.5 0 0-0.4-0.1-0.3-0.3 0-0.2 0-0.4 0-0.4z"/>
		<path id="&lt;Path&gt;" class="s0" d="m3110.5 1567.1c0 0 8.9-4.4 12.3-4.6 3.4-0.2 3.5-0.5 5.2 0.7 1.7 1.2 5.6 2.8 6.2 2.5 0.6-0.3 2-1 2.6-0.9 0.7 0 0.8 0.7 1.9-0.5 1.2-1.1 3.6-3.6 6-4.1 2.4-0.6 8.7 0.4 9.9 0.9 1.3 0.6 2.4 1 2 1.2-0.3 0.3-1.9 1-2.8 1.1q-1.3 0-2.1 0.1c-0.5 0.1-0.7 0.1-1.4 0-0.8-0.1-0.6 0-1.4-0.2-0.8-0.1-0.7-0.5-1.9-0.2-1.2 0.3-1.5 0.2-2.2 0.5-0.7 0.3-1.4 0.5-1.9 0.8-0.5 0.2-1 0.5-1.9 1-1 0.4-2.1 1.1-2.4 1.3-0.3 0.2-0.2-0.7-0.4 0.6-0.3 1.2-0.3 1.8-0.3 1.8 0 0 0.3 0.3 1.2 0.5 0.8 0.1 0.8 0.1 0.8 0.1 0 0-0.2 0.9-1.1 1.4-1 0.4-2.1 1.2-2.4 1.3-0.3 0.1-1.9 0.7-3.2 0.5-1.2-0.2-2.6-1.2-3-1.3-0.3-0.1-0.4-0.4-0.4-0.4 0 0 1.6-0.6 2.1-0.7 0.5-0.2 1.3-0.7 1.3-0.7v-1c0 0 1.1 0.3-1.1-0.1-2.3-0.4-2.9-0.6-3.4-1-0.6-0.5-1.8-1-2.8-1.1-1 0-1.3-0.2-2.3-0.2-1 0.1-1.5 0.2-1.5 0.2 0 0 0.7-0.5-1 0-1.8 0.6-2.2 0.8-2.9 1-0.6 0.2-1 0.4-1.7 0.5-0.7 0.1-0.8 0.2-1.2 0.2-0.5 0-0.6 0-1.1-0.1-0.6 0-0.7 0.1-1.1 0-0.4 0-0.6 0-1.1-0.2-0.5-0.1-1-0.3-1-0.3 0 0-0.4 0-0.4-0.2 0-0.2-0.1-0.4-0.1-0.4z"/>
		<path id="&lt;Path&gt;" class="s0" d="m3050.4 1435.4c3.2 1.7 14.9 7.1 20 10 5.1 2.8 10.3 7.8 13.7 9.7 3.4 1.8 12.9 11.1 14.2 12.4 1.3 1.2 2.7 3.9 4.7 3.7 2-0.3 3.6 0.1 6.3-1.1 2.6-1.2 4.4 1 4.4 1.7 0.1 0.7 0.5 0.5 0.5 0.5 0 0 3.1-2.6 10.7-4.4 7.6-1.9 10.5-1.8 14.7-1.8 4.2 0 4.7 0.8 7.4-0.6 2.8-1.5 2.5-1.7 2.8-1.5 0.4 0.3-1.1 3-8.5 4.6-7.4 1.6-14.5 3.9-17 4.8-2.4 0.8-6.2 1.8-7.7 2.2-1.5 0.3-3.5 1-3.5 1 0 0-1.7 4.7-4.1 6.4-2.5 1.7-4.4 2.9-4.9 3.2-0.4 0.3 0.6 1.3 0.7 1.6 0.1 0.4 1 1.6-0.4 2.3-1.4 0.7-4.8 1.7-5.9 2-1.2 0.3-2.6 0.4-4.4 0.4-1.8 0-1.8 0.9-3.9-0.6-2.1-1.6-3.4-2.9-4.6-3.6-1.1-0.7-4.2-4.2-2.8-5.5 1.4-1.2 8.1-1 9.7-1.2 1.7-0.2 3 0.2 3-0.9 0-1.1-3.2-3.5-5.6-5.8-2.3-2.2-8.3-5.9-12.5-10.8-4.2-4.9-6-5.3-7.8-7-1.8-1.7-3.1-1.5-3.7-2-0.5-0.6-5.6-4.1-6.9-6-1.2-1.9 0.7 0.3-1.7-2.5-2.3-2.8-3.2-3.1-3.9-4.1-0.8-0.9-1.1-0.8-1.8-2.2-0.6-1.3-1.5-0.9-1.2-2.3 0.3-1.4 0-2.6 0-2.6z"/>
		<path id="&lt;Path&gt;" class="s0" d="m3036.2 1535.5c1.9 0.4 8.9 1.5 12 2.3 3.1 0.7 6.5 2.6 8.6 3 2.1 0.5 8.4 4 9.3 4.5 0.9 0.4 2 1.7 3 1.2 1-0.4 2-0.4 3.2-1.5 1.2-1 2.4-0.1 2.6 0.3 0.1 0.3 0.3 0.2 0.3 0.2 0 0 1.2-1.8 5-3.9 3.7-2.1 5.2-2.5 7.4-3.1 2.3-0.7 2.6-0.3 3.8-1.5 1.3-1.1 1.1-1.2 1.3-1.1 0.2 0-0.1 1.7-3.8 3.6-3.6 2-7 4.2-8.2 5-1.2 0.8-3 1.9-3.8 2.3-0.7 0.4-1.7 1.1-1.7 1.1 0 0-0.2 2.7-1.2 4-1.1 1.2-1.9 2.1-2.1 2.4-0.2 0.2 0.5 0.5 0.6 0.7 0.1 0.2 0.8 0.7 0.2 1.3-0.7 0.6-2.3 1.6-2.9 1.9q-0.8 0.5-2.2 0.9c-0.9 0.2-0.8 0.7-2.2 0.2-1.3-0.5-2.2-1-2.9-1.2-0.7-0.2-2.8-1.6-2.3-2.5 0.6-0.8 4.1-1.7 5-2 0.8-0.4 1.6-0.4 1.4-1-0.2-0.5-2.2-1.3-3.8-2.2-1.6-0.8-5.3-1.9-8.2-3.8-2.9-2-3.9-1.9-5.1-2.5-1.2-0.7-1.9-0.4-2.2-0.6-0.4-0.2-3.6-1.3-4.5-2.1-1-0.8 0.3 0-1.3-1.1-1.7-1.1-2.2-1.1-2.7-1.5-0.5-0.4-0.7-0.3-1.2-0.9-0.6-0.6-1-0.3-1-1.1-0.1-0.8-0.4-1.3-0.4-1.3z"/>
		<path id="&lt;Path&gt;" class="s0" d="m3244.1 1536.3c-0.1 0.6-0.4 0.4-0.8 0.8-0.4 0.5-0.5 0.4-0.9 0.7-0.4 0.3-0.8 0.3-2 1.1-1.2 0.9-0.2 0.2-0.9 0.8-0.7 0.6-3.1 1.4-3.4 1.6-0.2 0.2-0.7-0.1-1.6 0.4-0.9 0.5-1.6 0.4-3.8 1.9-2.2 1.4-4.9 2.2-6.1 2.8-1.2 0.7-2.7 1.3-2.8 1.7-0.1 0.4 0.4 0.4 1 0.7 0.7 0.2 3.3 0.9 3.7 1.5 0.4 0.7-1.2 1.7-1.7 1.8-0.5 0.2-1.2 0.6-2.2 0.9-1 0.4-0.9 0-1.6-0.1q-1-0.3-1.6-0.7c-0.4-0.2-1.6-1-2.1-1.4-0.5-0.5 0-0.8 0.1-1 0.1-0.1 0.6-0.4 0.4-0.5-0.1-0.2-0.7-0.9-1.5-1.8-0.8-0.9-0.9-3-0.9-3 0 0-0.7-0.4-1.3-0.7-0.5-0.3-1.9-1.1-2.8-1.7-0.9-0.6-3.4-2.3-6.1-3.8-2.7-1.4-3-2.6-2.8-2.7 0.2 0 0 0 0.9 0.9 1 0.9 1.2 0.6 2.8 1.1 1.7 0.4 2.8 0.7 5.6 2.3 2.8 1.5 3.7 2.9 3.7 2.9 0 0 0.1 0.1 0.2-0.2 0.1-0.3 1.1-0.9 2-0.2 0.9 0.8 1.6 0.8 2.3 1.1 0.7 0.4 1.6-0.5 2.2-0.9 0.7-0.4 5.4-2.9 7-3.3 1.5-0.3 4-1.7 6.3-2.3 2.4-0.5 7.5-1.4 9-1.7 0 0-0.3 0.5-0.3 1z"/>
		<path id="&lt;Path&gt;" class="s0" d="m3543.9 1492.2c0 0 9.7-2.1 13.1-1.4 3.3 0.6 3.5 0.3 4.8 1.8 1.4 1.6 4.8 4.2 5.5 4 0.6-0.2 2.1-0.5 2.8-0.3 0.6 0.2 0.5 0.9 1.9 0 1.4-0.8 4.3-2.7 6.8-2.6 2.4 0.1 8.3 2.5 9.4 3.3 1.1 0.8 2.1 1.5 1.7 1.7-0.5 0.1-2.1 0.5-3 0.3q-1.3-0.3-2.1-0.3c-0.5-0.1-0.7-0.2-1.4-0.4-0.7-0.3-0.6-0.2-1.3-0.5-0.7-0.4-0.5-0.7-1.8-0.7-1.2 0-1.4-0.1-2.2 0-0.8 0.1-1.5 0.2-2 0.3-0.6 0.1-1.1 0.2-2.2 0.4-1 0.3-2.2 0.6-2.6 0.8-0.3 0.1 0-0.7-0.5 0.4-0.6 1.2-0.8 1.7-0.8 1.7 0 0 0.3 0.4 1.1 0.8 0.8 0.3 0.8 0.3 0.8 0.3 0 0-0.4 0.9-1.5 1.1-1 0.2-2.3 0.6-2.6 0.7-0.3 0-2 0.2-3.2-0.3-1.1-0.5-2.3-1.8-2.6-2-0.3-0.1-0.3-0.5-0.3-0.5 0 0 1.7-0.1 2.2-0.2 0.5 0 1.5-0.3 1.5-0.3l0.2-0.9c0 0 1 0.5-1.1-0.4-2.1-0.9-2.7-1.3-3.1-1.8-0.4-0.6-1.5-1.4-2.4-1.7-0.9-0.3-1.2-0.6-2.2-0.8-1-0.2-1.5-0.2-1.5-0.2 0 0 0.9-0.2-1-0.2-1.9 0.1-2.3 0.3-3 0.3-0.7 0-1.1 0.1-1.8 0-0.6 0-0.8 0.1-1.2 0-0.5-0.2-0.5-0.2-1.1-0.4-0.5-0.1-0.7-0.1-1-0.2-0.4-0.2-0.6-0.2-1-0.5-0.5-0.2-0.9-0.6-0.9-0.6 0 0-0.5 0-0.4-0.2 0.1-0.2 0-0.5 0-0.5z"/>
		<path id="&lt;Path&gt;" class="s0" d="m3115.3 1601.1c0 0 9.6-2.1 13-1.5 3.4 0.7 3.6 0.3 4.9 1.9 1.4 1.5 4.8 4.1 5.4 3.9 0.7-0.1 2.2-0.5 2.8-0.3 0.7 0.3 0.6 0.9 2 0.1 1.4-0.9 4.3-2.7 6.7-2.6 2.5 0 8.4 2.4 9.5 3.3 1.1 0.8 2.1 1.4 1.6 1.6-0.4 0.2-2 0.5-2.9 0.3q-1.4-0.2-2.1-0.3c-0.5 0-0.7-0.1-1.4-0.4-0.7-0.2-0.6-0.1-1.3-0.5-0.7-0.3-0.6-0.7-1.8-0.7-1.2 0-1.5-0.1-2.3 0-0.8 0.2-1.4 0.2-1.9 0.3-0.6 0.2-1.2 0.3-2.2 0.5-1 0.2-2.3 0.6-2.6 0.7-0.3 0.1 0-0.7-0.6 0.5-0.5 1.2-0.7 1.7-0.7 1.7 0 0 0.2 0.4 1 0.7 0.8 0.4 0.8 0.4 0.8 0.4 0 0-0.4 0.8-1.4 1-1 0.2-2.3 0.7-2.6 0.7-0.3 0.1-2.1 0.3-3.2-0.2-1.1-0.5-2.3-1.8-2.6-2-0.3-0.2-0.4-0.5-0.4-0.5 0 0 1.8-0.2 2.3-0.2 0.5-0.1 1.4-0.3 1.4-0.3l0.2-1c0 0 1.1 0.6-1-0.4-2.1-0.9-2.7-1.2-3.1-1.8-0.4-0.6-1.5-1.4-2.4-1.7-0.9-0.3-1.2-0.5-2.2-0.7-1-0.2-1.5-0.2-1.5-0.2 0 0 0.8-0.3-1-0.2-1.9 0.1-2.4 0.2-3 0.3-0.7 0-1.1 0-1.8 0-0.7 0-0.8 0-1.3-0.1-0.4-0.1-0.5-0.2-1-0.3-0.6-0.2-0.7-0.1-1.1-0.3-0.4-0.1-0.6-0.2-1-0.4-0.4-0.3-0.9-0.6-0.9-0.6 0 0-0.4-0.1-0.3-0.3 0.1-0.2 0-0.4 0-0.4z"/>
		<path id="&lt;Path&gt;" class="s0" d="m3466.3 1572.1c0 0 8.8-4.3 12.3-4.5 3.4-0.2 3.5-0.6 5.2 0.6 1.6 1.2 5.6 2.9 6.2 2.6 0.6-0.3 1.9-1 2.6-1 0.7 0.1 0.8 0.8 1.9-0.4 1.2-1.2 3.6-3.7 6-4.2 2.3-0.5 8.7 0.4 9.9 1 1.3 0.5 2.4 0.9 2 1.2-0.4 0.2-1.9 1-2.8 1q-1.3 0.1-2.1 0.2c-0.5 0.1-0.7 0-1.4 0-0.8-0.1-0.7-0.1-1.4-0.2-0.8-0.2-0.7-0.6-1.9-0.3-1.2 0.3-1.5 0.3-2.2 0.6-0.8 0.3-1.4 0.5-1.9 0.7-0.5 0.3-1 0.6-2 1-0.9 0.5-2 1.1-2.3 1.3-0.3 0.2-0.2-0.7-0.4 0.6-0.3 1.3-0.4 1.8-0.4 1.8 0 0 0.4 0.4 1.2 0.5 0.9 0.2 0.9 0.2 0.9 0.2 0 0-0.2 0.9-1.2 1.3-0.9 0.5-2 1.2-2.3 1.3-0.3 0.2-2 0.8-3.2 0.6-1.2-0.3-2.7-1.2-3-1.3-0.3-0.1-0.5-0.5-0.5-0.5 0 0 1.7-0.5 2.2-0.7 0.5-0.1 1.3-0.7 1.3-0.7v-0.9c0 0 1.1 0.3-1.1-0.1-2.3-0.4-3-0.6-3.5-1.1-0.5-0.4-1.7-0.9-2.7-1-1-0.1-1.3-0.3-2.3-0.2-1 0-1.5 0.1-1.5 0.1 0 0 0.7-0.4-1.1 0.1-1.7 0.5-2.2 0.8-2.8 1-0.7 0.2-1 0.3-1.7 0.4-0.7 0.2-0.8 0.3-1.3 0.3-0.4-0.1-0.5-0.1-1.1-0.1-0.5-0.1-0.6 0.1-1 0-0.5-0.1-0.7-0.1-1.1-0.2-0.5-0.2-1-0.4-1-0.4 0 0-0.5 0.1-0.4-0.1 0-0.3-0.1-0.5-0.1-0.5z"/>
		<path id="&lt;Path&gt;" class="s0" d="m3263.5 1584.1c2 0.4 8.9 1.6 12 2.3 3.1 0.7 6.5 2.6 8.6 3.1 2.1 0.4 8.5 3.9 9.3 4.4 0.9 0.5 2 1.7 3 1.3 1-0.5 2-0.5 3.2-1.5 1.2-1.1 2.4-0.2 2.6 0.2 0.1 0.4 0.3 0.2 0.3 0.2 0 0 1.2-1.8 5-3.9 3.7-2.1 5.2-2.5 7.5-3.1 2.2-0.6 2.5-0.3 3.8-1.4 1.2-1.2 1-1.2 1.2-1.2 0.2 0.1-0.1 1.7-3.8 3.7-3.6 1.9-7 4.2-8.2 5-1.2 0.8-3 1.9-3.8 2.3-0.7 0.4-1.7 1-1.7 1 0 0-0.2 2.7-1.2 4-1 1.3-1.9 2.2-2.1 2.4-0.1 0.2 0.5 0.6 0.6 0.8 0.1 0.1 0.8 0.6 0.2 1.2-0.7 0.6-2.3 1.6-2.9 1.9q-0.8 0.5-2.2 0.9c-0.9 0.3-0.8 0.7-2.2 0.2-1.3-0.5-2.2-1-2.9-1.2-0.7-0.2-2.8-1.5-2.3-2.4 0.6-0.9 4.1-1.7 5-2.1 0.8-0.4 1.6-0.4 1.4-0.9-0.2-0.6-2.2-1.4-3.8-2.2-1.6-0.9-5.3-1.9-8.2-3.9-2.9-1.9-3.9-1.9-5.1-2.5-1.2-0.6-1.9-0.3-2.2-0.6-0.4-0.2-3.6-1.2-4.5-2.1-1-0.8 0.3 0.1-1.3-1-1.7-1.1-2.2-1.2-2.7-1.6-0.5-0.4-0.7-0.3-1.2-0.9-0.6-0.6-1-0.2-1-1-0.1-0.8-0.4-1.4-0.4-1.4z"/>
		<path id="&lt;Path&gt;" class="s0" d="m3599.9 1541.4c-0.1 0.6-0.4 0.3-0.8 0.8-0.4 0.4-0.5 0.3-0.9 0.7-0.4 0.3-0.8 0.3-2 1.1-1.2 0.8-0.3 0.2-0.9 0.8-0.7 0.6-3.1 1.4-3.4 1.6-0.3 0.1-0.7-0.1-1.6 0.4-0.9 0.4-1.7 0.4-3.8 1.8-2.2 1.5-5 2.3-6.1 2.9-1.2 0.6-2.7 1.2-2.8 1.6-0.2 0.5 0.4 0.5 1 0.7 0.6 0.3 3.3 0.9 3.7 1.6 0.4 0.6-1.2 1.6-1.7 1.8-0.5 0.2-1.2 0.5-2.2 0.9-1 0.4-0.9 0-1.6-0.2q-1-0.3-1.6-0.6c-0.4-0.3-1.7-1-2.1-1.5-0.5-0.4 0-0.8 0.1-0.9 0-0.1 0.5-0.4 0.4-0.6-0.1-0.1-0.8-0.8-1.5-1.7-0.8-1-1-3-1-3 0 0-0.7-0.5-1.2-0.8-0.6-0.3-1.9-1.1-2.8-1.7-0.9-0.6-3.4-2.3-6.1-3.7-2.7-1.5-3-2.7-2.8-2.7 0.1-0.1 0 0 0.9 0.9 0.9 0.8 1.2 0.6 2.8 1 1.7 0.5 2.8 0.8 5.6 2.3 2.7 1.6 3.7 2.9 3.7 2.9 0 0 0.1 0.1 0.2-0.1 0.1-0.3 1.1-1 1.9-0.2 0.9 0.8 1.6 0.8 2.4 1.1 0.7 0.3 1.6-0.6 2.2-0.9 0.7-0.4 5.4-3 6.9-3.3 1.6-0.4 4.1-1.8 6.4-2.3 2.3-0.6 7.5-1.4 8.9-1.7 0 0-0.2 0.4-0.2 1z"/>
		<path id="&lt;Path&gt;" class="s0" d="m3525.6 1525.7c-0.1 0.9-0.5 0.5-1.1 1.1-0.6 0.7-0.8 0.6-1.3 1-0.6 0.5-1.2 0.5-2.9 1.7-1.8 1.2-0.4 0.2-1.4 1.1-1 0.9-4.5 2.1-4.9 2.3-0.4 0.3-1.1 0-2.4 0.6-1.3 0.7-2.4 0.6-5.6 2.8-3.1 2.1-7.1 3.2-8.8 4.1-1.7 1-4 1.8-4.1 2.4-0.2 0.6 0.6 0.6 1.5 1 0.9 0.4 4.8 1.3 5.4 2.3 0.6 0.9-1.7 2.4-2.5 2.6-0.8 0.3-1.7 0.8-3.2 1.3-1.4 0.6-1.3 0.1-2.3-0.2q-1.5-0.4-2.4-1c-0.6-0.3-2.4-1.4-3.1-2-0.7-0.7 0.1-1.2 0.2-1.4 0.1-0.2 0.8-0.6 0.6-0.8-0.2-0.3-1.1-1.3-2.2-2.6-1.2-1.4-1.4-4.3-1.4-4.3 0 0-1-0.7-1.8-1.2-0.8-0.4-2.8-1.6-4.1-2.4-1.2-0.9-4.9-3.4-8.9-5.5-3.9-2.1-4.3-3.9-4.1-3.9 0.3-0.1 0 0 1.4 1.2 1.3 1.3 1.7 0.9 4.1 1.6 2.4 0.6 4.1 1.1 8.1 3.3 4 2.3 5.4 4.3 5.4 4.3 0 0 0.2 0.1 0.3-0.3 0.2-0.3 1.5-1.3 2.9-0.2 1.3 1.1 2.3 1.1 3.3 1.6 1.1 0.5 2.4-0.8 3.3-1.4 0.9-0.5 7.8-4.2 10.1-4.8 2.2-0.5 5.9-2.5 9.3-3.3 3.4-0.8 10.9-2 13-2.5 0 0-0.3 0.7-0.4 1.5z"/>
		<path id="&lt;Path&gt;" class="s0" d="m3220.6 1593.6c0 0.5-0.3 0.3-0.6 0.7-0.4 0.4-0.5 0.3-0.8 0.6-0.4 0.3-0.7 0.3-1.8 1-1.1 0.8-0.2 0.2-0.8 0.7-0.6 0.6-2.8 1.3-3 1.4-0.3 0.1-0.7 0-1.5 0.4-0.7 0.4-1.4 0.3-3.3 1.6-1.9 1.3-4.4 2-5.4 2.6-1 0.5-2.4 1-2.5 1.4-0.1 0.4 0.4 0.4 1 0.6 0.5 0.2 2.8 0.8 3.2 1.4 0.4 0.5-1 1.4-1.5 1.6-0.5 0.1-1 0.4-1.9 0.8-0.9 0.3-0.8 0-1.4-0.2q-1-0.2-1.5-0.6c-0.4-0.2-1.4-0.8-1.9-1.2-0.4-0.4 0.1-0.7 0.1-0.8 0.1-0.2 0.5-0.4 0.4-0.5-0.1-0.2-0.7-0.8-1.3-1.6-0.7-0.8-0.9-2.6-0.9-2.6 0 0-0.6-0.4-1.1-0.7-0.4-0.3-1.6-1-2.4-1.5-0.8-0.6-3-2-5.4-3.3-2.4-1.3-2.7-2.4-2.5-2.4 0.1 0 0 0 0.8 0.8 0.8 0.7 1.1 0.5 2.5 0.9 1.5 0.4 2.5 0.7 4.9 2 2.5 1.4 3.3 2.6 3.3 2.6 0 0 0.1 0.1 0.2-0.1 0.1-0.3 0.9-0.9 1.7-0.2 0.8 0.7 1.4 0.7 2.1 1 0.6 0.3 1.4-0.5 1.9-0.8 0.6-0.4 4.8-2.6 6.1-2.9 1.4-0.4 3.6-1.6 5.7-2.1 2-0.4 6.6-1.2 7.9-1.5 0 0-0.2 0.4-0.3 0.9z"/>
		<path id="&lt;Path&gt;" class="s0" d="m2997.1 1583.7c1.7 0.2 7.6 0.6 10.3 1 2.7 0.4 6 2 7.8 2.2 1.9 0.3 8.1 3.1 8.9 3.5 0.8 0.4 2.1 1.5 2.8 1 0.7-0.6 1.4-0.7 2-1.9 0.7-1.1 2-0.3 2.2 0 0.2 0.4 0.3 0.2 0.3 0.2 0 0 0.5-2 2.8-4.5 2.3-2.5 3.4-3.1 5-3.9 1.6-0.9 1.9-0.6 2.6-1.9 0.6-1.3 0.4-1.3 0.6-1.3 0.2 0 0.4 1.7-1.9 4.1-2.3 2.4-4.3 5-5 6-0.7 0.9-1.8 2.2-2.3 2.7-0.4 0.5-1 1.2-1 1.2 0 0 0.7 2.8 0.3 4.2-0.5 1.4-0.8 2.4-0.9 2.6-0.1 0.3 0.6 0.6 0.7 0.8 0.1 0.1 0.8 0.6 0.5 1.2-0.3 0.7-1.3 1.9-1.7 2.3q-0.5 0.5-1.5 1.1c-0.6 0.4-0.4 0.8-1.6 0.5-1.3-0.4-2.1-0.8-2.7-1-0.7-0.1-2.8-1.3-2.7-2.2 0.2-1 2.8-2.2 3.4-2.6 0.5-0.5 1.1-0.6 0.8-1.1-0.3-0.6-2.2-1.2-3.7-1.9-1.6-0.7-4.8-1.3-7.8-3-3-1.7-3.7-1.5-4.9-2-1.1-0.5-1.6-0.2-1.9-0.4-0.4-0.1-3.3-0.9-4.3-1.6-1-0.8 0.3 0-1.4-1-1.6-0.9-2.1-0.9-2.6-1.3-0.6-0.3-0.7-0.2-1.3-0.8-0.6-0.5-0.8-0.1-1.1-0.9-0.3-0.8-0.7-1.3-0.7-1.3z"/>
		<path id="&lt;Path&gt;" class="s0" d="m3009.2 1554.5c0.4 0.1 1.7 0.2 2.4 0.3 0.6 0.1 1.4 0.4 1.8 0.5 0.4 0 1.9 0.7 2.1 0.8 0.1 0.1 0.4 0.3 0.6 0.2 0.2-0.1 0.3-0.1 0.5-0.4 0.1-0.3 0.4-0.1 0.5 0 0 0.1 0.1 0 0.1 0 0 0 0.1-0.4 0.6-1 0.5-0.6 0.8-0.7 1.2-0.9 0.3-0.2 0.4-0.2 0.6-0.5 0.1-0.3 0.1-0.3 0.1-0.3 0.1 0 0.1 0.4-0.4 1-0.6 0.5-1 1.1-1.2 1.4-0.2 0.2-0.4 0.5-0.5 0.6-0.1 0.1-0.3 0.3-0.3 0.3 0 0 0.2 0.6 0.1 1-0.1 0.3-0.2 0.5-0.2 0.6 0 0 0.1 0.1 0.2 0.1 0 0.1 0.2 0.2 0.1 0.3-0.1 0.2-0.3 0.5-0.4 0.6q-0.1 0.1-0.4 0.2c-0.1 0.1-0.1 0.2-0.3 0.1-0.3-0.1-0.5-0.2-0.7-0.2-0.1 0-0.6-0.3-0.6-0.5 0.1-0.2 0.7-0.5 0.8-0.6 0.1-0.1 0.3-0.1 0.2-0.3-0.1-0.1-0.5-0.2-0.9-0.4-0.3-0.2-1.1-0.3-1.8-0.7-0.7-0.4-0.9-0.4-1.1-0.5-0.3-0.1-0.4 0-0.5-0.1-0.1 0-0.7-0.2-1-0.3-0.2-0.2 0.1 0-0.3-0.3-0.4-0.2-0.5-0.2-0.6-0.3-0.1-0.1-0.2 0-0.3-0.1-0.1-0.2-0.2-0.1-0.3-0.3 0-0.2-0.1-0.3-0.1-0.3z"/>
		<path id="&lt;Path&gt;" class="s0" d="m3558.4 1565.6c0.4 0.9 1.9 3.8 2.5 5.2 0.6 1.4 0.9 3.4 1.3 4.4 0.4 0.9 0.8 4.6 0.9 5.2 0.1 0.5-0.1 1.4 0.4 1.6 0.4 0.1 0.7 0.4 1.4 0.4 0.8-0.1 0.8 0.8 0.7 1-0.1 0.2 0 0.2 0 0.2 0 0 1.1-0.4 2.9 0 1.9 0.3 2.5 0.7 3.4 1.2 0.8 0.5 0.8 0.7 1.6 0.7 0.8-0.1 0.7-0.2 0.8-0.1 0 0.1-0.7 0.7-2.5 0.3-1.8-0.4-3.6-0.6-4.3-0.6-0.6-0.1-1.6-0.2-1.9-0.3-0.4-0.1-0.9-0.1-0.9-0.1 0 0-1.1 1.1-1.9 1.3-0.8 0.2-1.4 0.4-1.5 0.4-0.1 0-0.1 0.4-0.1 0.5-0.1 0.1-0.1 0.6-0.5 0.6-0.4 0.1-1.2 0-1.5-0.1q-0.4-0.1-1-0.4c-0.4-0.2-0.5 0.1-0.7-0.6-0.2-0.7-0.2-1.2-0.4-1.6-0.1-0.3-0.2-1.7 0.3-1.9 0.5-0.2 1.9 0.7 2.2 0.8 0.4 0.2 0.6 0.4 0.8 0.1 0.2-0.3-0.1-1.4-0.2-2.3-0.1-0.9-0.8-2.6-0.9-4.5 0-1.9-0.4-2.2-0.5-2.9-0.1-0.7-0.3-0.8-0.4-1 0-0.3-0.5-1.9-0.4-2.6 0-0.6 0 0.2 0-0.9 0-1-0.2-1.2-0.2-1.6 0.1-0.4 0-0.4 0-0.8 0.1-0.5-0.1-0.5 0.2-0.8 0.2-0.4 0.4-0.8 0.4-0.8z"/>
	</g>
</svg>