<svg version="1.2" xmlns="http://www.w3.org/2000/svg" viewBox="0 0 3840 2160" width="3840" height="2160">
	<title>Moon</title>
	<defs>
		<linearGradient id="g1" x1="1613.6" y1="1825.8" x2="1613.6" y2="1825.8" gradientUnits="userSpaceOnUse">
			<stop offset="0" stop-color="#e0ffff"/>
			<stop offset="1" stop-color="#e0ffff"/>
		</linearGradient>
		<linearGradient id="g2" x1="1647.3" y1="1792.1" x2="1647.3" y2="1792.1" gradientUnits="userSpaceOnUse">
			<stop offset="0" stop-color="#e0ffff"/>
			<stop offset="1" stop-color="#e0ffff"/>
		</linearGradient>
	</defs>
	<style>
		.s0 { opacity: .3;fill: url(#g1) } 
		.s1 { fill: url(#g2) } 
		.s2 { fill: #b0c7d3 } 
		.s3 { opacity: .1;fill: #ffffff } 
		.s4 { opacity: .3;mix-blend-mode: overlay;fill: #020202 } 
		.s5 { opacity: .1;mix-blend-mode: overlay;fill: #020202 } 
		.s6 { opacity: .2;mix-blend-mode: overlay;fill: #020202 } 
	</style>
	<g id="Moon">
		<path id="&lt;Mesh&gt;" class="s0" d="m1527.6 1709.5c47.3 26 123.9 11.7 182.4 52.3 36.2 40.1 27.8 115.4 46.5 163.1-53.5-24.3-101.9-58.1-142.9-99.1-34.2-34.1-63.2-73.3-86-116.3zm-56.1-222.6c56.5-0.8 73.9-2.5 152.9-4.1 0.3 89.4 22.6 209.5 85.6 279-58.5-40.6-135.1-26.3-182.4-52.3-35.3-66.6-55.5-142.3-56.1-222.6zm69.4-254.4c46.3-31.3 135.5 20.5 191.1-21.6-81.2 83.1-108.1 164.9-107.6 271.9-79 1.6-96.4 3.3-152.9 4.1q0-2.1 0-4.1c0-91.6 25.3-177.2 69.4-250.3zm72.7-92.8c41-41 89.4-74.8 142.9-99-15.2 34.5 5.2 140.4-24.5 170.2-55.6 42.1-144.8-9.7-191.1 21.6 20.4-33.8 44.9-65 72.7-92.8zm96.4 622.1c71 49.4 163.7 57.8 246.6 57 0 64.1 1.7 84.9 1.7 149.1q-0.9 0-1.7 0c-71.3 0-139.1-15.4-200.1-43-18.7-47.7-10.3-123-46.5-163.1zm-85.6-279c92.8-2.6 241.4-4.4 334.2-4.6-0.1 99-1.9 241.5-2 340.6-82.9 0.8-175.6-7.6-246.6-57-63-69.5-85.3-189.6-85.6-279zm107.6-271.9c77.4-58.5 145.5-75.7 226.4-75.5 0.2 114.3 0.2 228.5 0.2 342.8-92.8 0.2-241.4 2-334.2 4.6-0.5-107 26.4-188.8 107.6-271.9zm24.5-170.2c61-27.7 128.8-43.1 200.1-43.1q0.8 0 1.7 0c0 42.8 0.1 89 0.1 137.8-80.9-0.2-149 17-226.4 75.5 29.7-29.8 9.3-135.7 24.5-170.2zm200.1 778.1c76.5 0.4 160.5-5.7 242.6-56.6-40 36.7-27.3 115.8-45.4 164-59.8 26.6-125.9 41.5-195.5 41.7 0-64.2-1.7-85-1.7-149.1zm2-340.6c86.8 0.1 262.5 3.8 350.6 5.9-0.4 89.1-44.9 218.4-110 278.1-82.1 50.9-166.1 57-242.6 56.6 0.1-99.1 1.9-241.6 2-340.6zm-0.2-342.8c75.5 0.2 159 28.9 236 58.5 85.4 106.4 115.3 183.1 114.8 290.2-88.1-2.1-263.8-5.8-350.6-5.9 0-114.3 0-228.5-0.2-342.8zm-0.1-137.8c69.6 0.3 135.7 15.1 195.5 41.8 14.8 34.8 13.9 121.8 40.6 154.5-77-29.6-160.5-58.3-236-58.5 0-48.8-0.1-95-0.1-137.8zm240.9 764.6c61.8-38.3 138.3-26.2 186.4-52.7-22.8 43-51.8 82.2-86 116.3-41.7 41.8-91.1 76-145.8 100.4 18.1-48.2 5.4-127.3 45.4-164zm110-278.1c80.7 1.9 74.9 2 132.5 2.8-0.7 80.3-20.9 156-56.1 222.6-48.1 26.5-124.6 14.4-186.4 52.7 65.1-59.7 109.6-189 110-278.1zm-114.8-290.2c66.5 25.6 130.8 6.7 177.9 38.6 44.1 73.1 69.4 158.7 69.4 250.3q0 2 0 4.1c-57.6-0.8-51.8-0.9-132.5-2.8 0.5-107.1-29.4-183.8-114.8-290.2zm-40.6-154.5c54.7 24.3 104.1 58.5 145.8 100.3 27.8 27.8 52.3 59 72.7 92.8-47.1-31.9-111.4-13-177.9-38.6-26.7-32.7-25.8-119.7-40.6-154.5z"/>
		<path id="&lt;Mesh&gt;" class="s1" d="m1569.7 1687.2c42.7 23.5 111.8 10.6 164.5 47.2 32.6 36.1 25.1 104 42 147-48.3-21.9-91.9-52.3-128.9-89.3-30.8-30.8-57-66.1-77.6-104.9zm-50.6-200.7c51-0.7 66.7-2.3 137.9-3.7 0.3 80.7 20.4 188.9 77.2 251.6-52.7-36.6-121.8-23.7-164.5-47.2-31.7-60-50-128.3-50.6-200.7zm62.6-229.4c41.8-28.2 122.2 18.4 172.3-19.5-73.2 74.9-97.4 148.7-97 245.2-71.2 1.4-86.9 3-137.9 3.7q0-1.9 0-3.7c0-82.6 22.9-159.8 62.6-225.7zm65.6-83.7c37-37 80.6-67.4 128.9-89.3-13.8 31.2 4.6 126.6-22.2 153.5-50.1 37.9-130.5-8.7-172.3 19.5 18.5-30.5 40.5-58.6 65.6-83.7zm86.9 561c64.1 44.5 147.7 52.1 222.4 51.3 0 57.9 1.5 76.6 1.5 134.5q-0.7 0-1.5 0c-64.3 0-125.4-13.9-180.4-38.8-16.9-43-9.4-110.9-42-147zm-77.2-251.6c83.7-2.4 217.7-4 301.4-4.2-0.1 89.4-1.7 217.8-1.8 307.1-74.7 0.8-158.3-6.8-222.4-51.3-56.8-62.7-76.9-170.9-77.2-251.6zm97-245.2c69.8-52.7 131.3-68.2 204.3-68.1 0.1 103.1 0.1 206.1 0.1 309.1-83.7 0.2-217.7 1.8-301.4 4.2-0.4-96.5 23.8-170.3 97-245.2zm22.2-153.5c55-24.9 116.1-38.8 180.4-38.8q0.8 0 1.5 0c0 38.6 0.1 80.2 0.2 124.2-73-0.1-134.5 15.4-204.3 68.1 26.8-26.9 8.4-122.3 22.2-153.5zm180.4 701.6c69 0.4 144.7-5.1 218.7-50.9-36 33.1-24.5 104.4-40.9 147.8-53.9 24-113.5 37.4-176.3 37.6 0-57.9-1.5-76.6-1.5-134.5zm1.8-307.1c78.3 0.1 236.7 3.5 316.2 5.4-0.4 80.3-40.5 196.9-99.3 250.8-74 45.8-149.7 51.3-218.7 50.9 0.1-89.3 1.7-217.7 1.8-307.1zm-0.1-309.1c68 0.2 143.3 26.1 212.8 52.8 76.9 95.9 103.9 165.1 103.5 261.7-79.5-1.9-237.9-5.3-316.2-5.4 0-103 0-206-0.1-309.1zm-0.2-124.2c62.8 0.2 122.4 13.6 176.3 37.6 13.3 31.4 12.5 109.9 36.7 139.4-69.5-26.7-144.8-52.6-212.8-52.8-0.1-44-0.2-85.6-0.2-124.2zm217.2 689.5c55.8-34.6 124.8-23.7 168.2-47.6-20.6 38.8-46.8 74.1-77.6 104.9-37.6 37.7-82.2 68.5-131.5 90.5 16.4-43.4 4.9-114.7 40.9-147.8zm99.3-250.8c72.7 1.7 67.5 1.8 119.4 2.5-0.6 72.4-18.8 140.7-50.5 200.7-43.4 23.9-112.4 13-168.2 47.6 58.8-53.9 98.9-170.5 99.3-250.8zm-103.5-261.7c59.9 23 117.8 6.1 160.4 34.8 39.7 65.9 62.6 143.1 62.6 225.7q0 1.8-0.1 3.7c-51.9-0.7-46.7-0.8-119.4-2.5 0.4-96.6-26.6-165.8-103.5-261.7zm-36.7-139.4c49.3 22 93.9 52.8 131.5 90.5 25.1 25.1 47.1 53.2 65.6 83.7-42.6-28.7-100.5-11.8-160.4-34.8-24.2-29.5-23.4-108-36.7-139.4z"/>
		<g id="&lt;Group&gt;">
			<g id="&lt;Group&gt;">
				<path id="&lt;Path&gt;" class="s2" d="m2368.6 1482.8c0 227.5-184.4 412-412 412-227.6 0-412-184.5-412-412 0-227.6 184.4-412.1 412-412.1 227.6 0 412 184.5 412 412.1z"/>
			</g>
			<path id="&lt;Path&gt;" class="s3" d="m1774.1 1715.1c0 0-157.5-135.5-171.3-210.1-13.9-74.6 14-146.1 60.9-209.8 46.8-63.8 165.8-159.7 231.1-172.1 65.3-12.4 117.2-21.6 177.9 28.2 60.7 49.7 115.9 105 88.3 212.8-27.6 107.8-19.3 124.3-107.8 218.3-88.4 94-210.7 163.6-279.1 132.7z"/>
			<path id="&lt;Path&gt;" class="s3" d="m1850.7 1877.4c0 0-188.3-162-204.9-251.2-16.5-89.2-76.2-168.2 11.9-310.5 49.8-80.4 173.7-181.4 251.8-196.2 78.1-14.9 225.7 24.2 298.3 83.7 72.5 59.5 138.6 125.6 105.6 254.5-33.1 128.9-23.1 148.7-128.9 261-105.7 112.4-252 195.7-333.8 158.7z"/>
			<path id="&lt;Path&gt;" class="s4" d="m2358 1489.2c0 215.2-174.4 389.7-389.7 389.7-101.8 0-194.5-39-263.9-103 56.7 29.5 121.2 46.2 189.5 46.2 227.3 0 411.5-184.2 411.5-411.5 0-60.3-12.9-117.6-36.2-169.2 55.5 67.3 88.8 153.7 88.8 247.8z"/>
			<path id="&lt;Path&gt;" class="s5" d="m1734.9 1684.5c-9.8 4.5-19.7 3.3-29.3-0.4-8.9-3.4-17.5-7.6-26.4-11-15.2-5.8-22.4-16.5-21.4-32.7q3-8.1 6-16.2h-0.1q0-1.5 0-2.9c2.8-3 5.4-6.2 8.4-8.9 6-5.5 13.2-6.3 20.3-3.3 7.5 3.2 6.1 10.2 5.3 16.6q-0.5 3.8-0.9 7.7 0.9 0.5 1.8 0.9c1.6 2 1.1 4.2 0.5 6.4 2.7 8.1 9.9 11.3 16.6 15.1 11.3 6.3 19.6 14.6 19.2 28.7z"/>
			<path id="&lt;Path&gt;" class="s6" d="m2020 1295.2c13 6.8 28 8.9 40 17.8 4.7 3.5 8.5 8.2 12.7 12.4-0.2 14.2-2.4 28.1-6.3 41.7-2.2 7.3-5.6 13.5-13.2 16.4-8 6.9-16.5 5.4-21-2.7-8.1-14.5-18.1-26.6-31.6-36-10.9-8.5-13-19.9-8.9-32.2 4.5-13.3 15.2-17.7 28.3-17.4z"/>
			<path id="&lt;Path&gt;" class="s6" d="m1693.1 1284.1c3 8.5 9 15.7 10.7 24.7 0.7 3.5 0.4 7.2 0.6 10.9-6 6.4-12.8 11.8-20.3 16.3-4 2.4-8.1 3.8-12.8 1.9-6.5-0.2-9.7-4.4-8.4-10 2.4-9.9 2.9-19.5 0.7-29.4-1.4-8.4 2.4-14.5 9.4-18.3 7.6-4.2 14.2-1.7 20.1 3.9z"/>
			<path id="&lt;Path&gt;" class="s6" d="m1876.3 1411.1c8 6.7 16 13.5 22.2 22.1 4.8 12.8-1 21.5-11.7 27.4-29.7 16.4-61.1 18-93.2 8.1-10.5-3.2-16-11.8-19.5-21.7 2.1-21 11.9-38.2 26.8-52.7 7.3-7.1 16.9-10.3 25-4 15.1 11.7 33.8 13.6 50.4 20.8z"/>
			<path id="&lt;Path&gt;" class="s6" d="m1851.4 1156.8c-6 3.6-12.3 6.7-18.8 1.6-8.6-6.6-4.9-15.4-3.2-23.6 2.1-2.4 4.4-4.6 6.5-7 5-5.9 10.6-10.7 18.8-7 9.7 4.2 16.4 11.6 18.7 22 1.1 5.5-3 8.3-7.6 9.8-4.8 1.5-9.6 2.8-14.4 4.2z"/>
			<path id="&lt;Path&gt;" class="s6" d="m2103.8 1220.4c-6 3.7-12.3 6.7-18.8 1.7-8.6-6.7-4.9-15.4-3.2-23.7 2.1-2.3 4.4-4.5 6.5-7 5-5.8 10.6-10.6 18.8-7 9.7 4.3 16.4 11.6 18.7 22.1 1.1 5.4-3 8.2-7.6 9.7-4.8 1.6-9.6 2.8-14.4 4.2z"/>
			<path id="&lt;Path&gt;" class="s6" d="m2012.4 1125.5c-3.5 2.1-7.3 3.9-11.1 1-5.1-4-3-9.2-2-14.1 1.3-1.4 2.7-2.7 3.9-4.2 3-3.4 6.3-6.3 11.2-4.1 5.7 2.5 9.8 6.9 11.1 13.1 0.7 3.2-1.8 4.9-4.5 5.8-2.9 0.9-5.7 1.6-8.6 2.5z"/>
		</g>
	</g>
</svg>