<svg version="1.2" xmlns="http://www.w3.org/2000/svg" viewBox="0 0 3840 2160" width="3840" height="2160">
	<title>Stars</title>
	<defs>
		<radialGradient id="g1" cx="110.9" cy="153.8" r="8.6" gradientUnits="userSpaceOnUse">
			<stop offset="0" stop-color="#ffffff"/>
			<stop offset=".4" stop-color="#1a66b0"/>
			<stop offset="1" stop-color="#000000"/>
		</radialGradient>
		<radialGradient id="g2" cx="1457.2" cy="209.3" r="7.1" gradientUnits="userSpaceOnUse">
			<stop offset="0" stop-color="#ffffff"/>
			<stop offset=".4" stop-color="#1a66b0"/>
			<stop offset="1" stop-color="#000000"/>
		</radialGradient>
		<radialGradient id="g3" cx="3070.9" cy="291.3" r="8.7" gradientUnits="userSpaceOnUse">
			<stop offset="0" stop-color="#ffffff"/>
			<stop offset=".4" stop-color="#1a66b0"/>
			<stop offset="1" stop-color="#000000"/>
		</radialGradient>
		<radialGradient id="g4" cx="3341.1" cy="759.3" r="12.7" gradientUnits="userSpaceOnUse">
			<stop offset="0" stop-color="#ffffff"/>
			<stop offset=".4" stop-color="#1a66b0"/>
			<stop offset="1" stop-color="#000000"/>
		</radialGradient>
		<radialGradient id="g5" cx="1029.3" cy="759.9" r="9.4" gradientUnits="userSpaceOnUse">
			<stop offset="0" stop-color="#ffffff"/>
			<stop offset=".4" stop-color="#1a66b0"/>
			<stop offset="1" stop-color="#000000"/>
		</radialGradient>
		<radialGradient id="g6" cx="496.5" cy="467.7" r="8.9" gradientUnits="userSpaceOnUse">
			<stop offset="0" stop-color="#ffffff"/>
			<stop offset=".4" stop-color="#1a66b0"/>
			<stop offset="1" stop-color="#000000"/>
		</radialGradient>
		<radialGradient id="g7" cx="2642.3" cy="738.4" r="7.1" gradientUnits="userSpaceOnUse">
			<stop offset="0" stop-color="#ffffff"/>
			<stop offset=".4" stop-color="#1a66b0"/>
			<stop offset="1" stop-color="#000000"/>
		</radialGradient>
		<radialGradient id="g8" cx="2800.8" cy="174.6" r="7.1" gradientUnits="userSpaceOnUse">
			<stop offset="0" stop-color="#ffffff"/>
			<stop offset=".4" stop-color="#1a66b0"/>
			<stop offset="1" stop-color="#000000"/>
		</radialGradient>
		<radialGradient id="g9" cx="2026.2" cy="205" r="7.1" gradientUnits="userSpaceOnUse">
			<stop offset="0" stop-color="#ffffff"/>
			<stop offset=".4" stop-color="#1a66b0"/>
			<stop offset="1" stop-color="#000000"/>
		</radialGradient>
		<radialGradient id="g10" cx="2098.9" cy="536.2" r="7.1" gradientUnits="userSpaceOnUse">
			<stop offset="0" stop-color="#ffffff"/>
			<stop offset=".4" stop-color="#1a66b0"/>
			<stop offset="1" stop-color="#000000"/>
		</radialGradient>
		<radialGradient id="g11" cx="913.4" cy="183.4" r="7.7" gradientUnits="userSpaceOnUse">
			<stop offset="0" stop-color="#ffffff"/>
			<stop offset=".4" stop-color="#1a66b0"/>
			<stop offset="1" stop-color="#000000"/>
		</radialGradient>
		<radialGradient id="g12" cx="291.3" cy="956.8" r="7.1" gradientUnits="userSpaceOnUse">
			<stop offset="0" stop-color="#ffffff"/>
			<stop offset=".4" stop-color="#1a66b0"/>
			<stop offset="1" stop-color="#000000"/>
		</radialGradient>
		<radialGradient id="g13" cx="3477.6" cy="1356.1" r="4.9" gradientUnits="userSpaceOnUse">
			<stop offset="0" stop-color="#ffffff"/>
			<stop offset=".4" stop-color="#1a66b0"/>
			<stop offset="1" stop-color="#000000"/>
		</radialGradient>
		<radialGradient id="g14" cx="3611.9" cy="217.9" r="8.8" gradientUnits="userSpaceOnUse">
			<stop offset="0" stop-color="#ffffff"/>
			<stop offset=".4" stop-color="#1a66b0"/>
			<stop offset="1" stop-color="#000000"/>
		</radialGradient>
		<radialGradient id="g15" cx="3779" cy="63.5" r="7.4" gradientUnits="userSpaceOnUse">
			<stop offset="0" stop-color="#ffffff"/>
			<stop offset=".4" stop-color="#1a66b0"/>
			<stop offset="1" stop-color="#000000"/>
		</radialGradient>
		<radialGradient id="g16" cx="3324.5" cy="93" r="14.3" gradientUnits="userSpaceOnUse">
			<stop offset="0" stop-color="#ffffff"/>
			<stop offset=".4" stop-color="#1a66b0"/>
			<stop offset="1" stop-color="#000000"/>
		</radialGradient>
		<radialGradient id="g17" cx="2325.5" cy="75.9" r="7.1" gradientUnits="userSpaceOnUse">
			<stop offset="0" stop-color="#ffffff"/>
			<stop offset=".4" stop-color="#1a66b0"/>
			<stop offset="1" stop-color="#000000"/>
		</radialGradient>
		<radialGradient id="g18" cx="441.4" cy="84.1" r="8.8" gradientUnits="userSpaceOnUse">
			<stop offset="0" stop-color="#ffffff"/>
			<stop offset=".4" stop-color="#1a66b0"/>
			<stop offset="1" stop-color="#000000"/>
		</radialGradient>
		<radialGradient id="g19" cx="106.5" cy="467.5" r="7.9" gradientUnits="userSpaceOnUse">
			<stop offset="0" stop-color="#ffffff"/>
			<stop offset=".4" stop-color="#1a66b0"/>
			<stop offset="1" stop-color="#000000"/>
		</radialGradient>
		<radialGradient id="g20" cx="64.7" cy="1371.9" r="6" gradientUnits="userSpaceOnUse">
			<stop offset="0" stop-color="#ffffff"/>
			<stop offset=".4" stop-color="#1a66b0"/>
			<stop offset="1" stop-color="#000000"/>
		</radialGradient>
		<radialGradient id="g21" cx="1649.6" cy="562.2" r="7.1" gradientUnits="userSpaceOnUse">
			<stop offset="0" stop-color="#ffffff"/>
			<stop offset=".4" stop-color="#1a66b0"/>
			<stop offset="1" stop-color="#000000"/>
		</radialGradient>
		<radialGradient id="g22" cx="1726.7" cy="80.3" r="7.1" gradientUnits="userSpaceOnUse">
			<stop offset="0" stop-color="#ffffff"/>
			<stop offset=".4" stop-color="#1a66b0"/>
			<stop offset="1" stop-color="#000000"/>
		</radialGradient>
		<radialGradient id="g23" cx="1145" cy="79.9" r="7.1" gradientUnits="userSpaceOnUse">
			<stop offset="0" stop-color="#ffffff"/>
			<stop offset=".4" stop-color="#1a66b0"/>
			<stop offset="1" stop-color="#000000"/>
		</radialGradient>
		<radialGradient id="g24" cx="909.2" cy="514.9" r="10.2" gradientUnits="userSpaceOnUse">
			<stop offset="0" stop-color="#ffffff"/>
			<stop offset=".4" stop-color="#1a66b0"/>
			<stop offset="1" stop-color="#000000"/>
		</radialGradient>
		<radialGradient id="g25" cx="668.7" cy="269.6" r="8.7" gradientUnits="userSpaceOnUse">
			<stop offset="0" stop-color="#ffffff"/>
			<stop offset=".4" stop-color="#1a66b0"/>
			<stop offset="1" stop-color="#000000"/>
		</radialGradient>
		<radialGradient id="g26" cx="771.6" cy="88.2" r="7.5" gradientUnits="userSpaceOnUse">
			<stop offset="0" stop-color="#ffffff"/>
			<stop offset=".4" stop-color="#1a66b0"/>
			<stop offset="1" stop-color="#000000"/>
		</radialGradient>
		<radialGradient id="g27" cx="380.9" cy="239.8" r="9.4" gradientUnits="userSpaceOnUse">
			<stop offset="0" stop-color="#ffffff"/>
			<stop offset=".4" stop-color="#1a66b0"/>
			<stop offset="1" stop-color="#000000"/>
		</radialGradient>
		<radialGradient id="g28" cx="183.9" cy="725.1" r="7.1" gradientUnits="userSpaceOnUse">
			<stop offset="0" stop-color="#ffffff"/>
			<stop offset=".4" stop-color="#1a66b0"/>
			<stop offset="1" stop-color="#000000"/>
		</radialGradient>
		<radialGradient id="g29" cx="3607.6" cy="471.4" r="10.9" gradientUnits="userSpaceOnUse">
			<stop offset="0" stop-color="#ffffff"/>
			<stop offset=".4" stop-color="#1a66b0"/>
			<stop offset="1" stop-color="#000000"/>
		</radialGradient>
		<radialGradient id="g30" cx="3757.7" cy="754.7" r="16.6" gradientUnits="userSpaceOnUse">
			<stop offset="0" stop-color="#ffffff"/>
			<stop offset=".4" stop-color="#1a66b0"/>
			<stop offset="1" stop-color="#000000"/>
		</radialGradient>
		<radialGradient id="g31" cx="3770.4" cy="1110.8" r="10.8" gradientUnits="userSpaceOnUse">
			<stop offset="0" stop-color="#ffffff"/>
			<stop offset=".4" stop-color="#1a66b0"/>
			<stop offset="1" stop-color="#000000"/>
		</radialGradient>
		<radialGradient id="g32" cx="3306.4" cy="1068.6" r="8.6" gradientUnits="userSpaceOnUse">
			<stop offset="0" stop-color="#ffffff"/>
			<stop offset=".4" stop-color="#1a66b0"/>
			<stop offset="1" stop-color="#000000"/>
		</radialGradient>
		<radialGradient id="g33" cx="2891" cy="570.8" r="7.1" gradientUnits="userSpaceOnUse">
			<stop offset="0" stop-color="#ffffff"/>
			<stop offset=".4" stop-color="#1a66b0"/>
			<stop offset="1" stop-color="#000000"/>
		</radialGradient>
		<radialGradient id="g34" cx="2432.5" cy="355.7" r="7.1" gradientUnits="userSpaceOnUse">
			<stop offset="0" stop-color="#ffffff"/>
			<stop offset=".4" stop-color="#1a66b0"/>
			<stop offset="1" stop-color="#000000"/>
		</radialGradient>
		<radialGradient id="g35" cx="373.4" cy="1312.4" r="6.1" gradientUnits="userSpaceOnUse">
			<stop offset="0" stop-color="#ffffff"/>
			<stop offset=".4" stop-color="#1a66b0"/>
			<stop offset="1" stop-color="#000000"/>
		</radialGradient>
		<radialGradient id="g36" cx="1786.6" cy="351.4" r="7.1" gradientUnits="userSpaceOnUse">
			<stop offset="0" stop-color="#ffffff"/>
			<stop offset=".4" stop-color="#1a66b0"/>
			<stop offset="1" stop-color="#000000"/>
		</radialGradient>
		<radialGradient id="g37" cx="1303.3" cy="454.8" r="7.3" gradientUnits="userSpaceOnUse">
			<stop offset="0" stop-color="#ffffff"/>
			<stop offset=".4" stop-color="#1a66b0"/>
			<stop offset="1" stop-color="#000000"/>
		</radialGradient>
		<radialGradient id="g38" cx="2175.8" cy="888.8" r="7.1" gradientUnits="userSpaceOnUse">
			<stop offset="0" stop-color="#ffffff"/>
			<stop offset=".4" stop-color="#1a66b0"/>
			<stop offset="1" stop-color="#000000"/>
		</radialGradient>
		<radialGradient id="g39" cx="1517.1" cy="798.7" r="7.1" gradientUnits="userSpaceOnUse">
			<stop offset="0" stop-color="#ffffff"/>
			<stop offset=".4" stop-color="#1a66b0"/>
			<stop offset="1" stop-color="#000000"/>
		</radialGradient>
		<radialGradient id="g40" cx="660" cy="901" r="8.1" gradientUnits="userSpaceOnUse">
			<stop offset="0" stop-color="#ffffff"/>
			<stop offset=".4" stop-color="#1a66b0"/>
			<stop offset="1" stop-color="#000000"/>
		</radialGradient>
		<radialGradient id="g41" cx="2522.7" cy="179" r="7.1" gradientUnits="userSpaceOnUse">
			<stop offset="0" stop-color="#ffffff"/>
			<stop offset=".4" stop-color="#1a66b0"/>
			<stop offset="1" stop-color="#000000"/>
		</radialGradient>
		<radialGradient id="g42" cx="3315.5" cy="424.4" r="8.9" gradientUnits="userSpaceOnUse">
			<stop offset="0" stop-color="#ffffff"/>
			<stop offset=".4" stop-color="#1a66b0"/>
			<stop offset="1" stop-color="#000000"/>
		</radialGradient>
		<radialGradient id="g43" cx="236.7" cy="1646.3" r="3.8" gradientUnits="userSpaceOnUse">
			<stop offset="0" stop-color="#ffffff"/>
			<stop offset=".4" stop-color="#1a66b0"/>
			<stop offset="1" stop-color="#000000"/>
		</radialGradient>
		<radialGradient id="g44" cx="48.2" cy="1804.5" r="4.9" gradientUnits="userSpaceOnUse">
			<stop offset="0" stop-color="#ffffff"/>
			<stop offset=".4" stop-color="#1a66b0"/>
			<stop offset="1" stop-color="#000000"/>
		</radialGradient>
		<radialGradient id="g45" cx="3764.7" cy="1766.4" r="5.4" gradientUnits="userSpaceOnUse">
			<stop offset="0" stop-color="#ffffff"/>
			<stop offset=".4" stop-color="#1a66b0"/>
			<stop offset="1" stop-color="#000000"/>
		</radialGradient>
		<radialGradient id="g46" cx="3761.2" cy="1415.6" r="5.8" gradientUnits="userSpaceOnUse">
			<stop offset="0" stop-color="#ffffff"/>
			<stop offset=".4" stop-color="#1a66b0"/>
			<stop offset="1" stop-color="#000000"/>
		</radialGradient>
		<radialGradient id="g47" cx="3589.4" cy="1209.8" r="8.3" gradientUnits="userSpaceOnUse">
			<stop offset="0" stop-color="#ffffff"/>
			<stop offset=".4" stop-color="#1a66b0"/>
			<stop offset="1" stop-color="#000000"/>
		</radialGradient>
		<radialGradient id="g48" cx="2852.1" cy="1004.4" r="7.1" gradientUnits="userSpaceOnUse">
			<stop offset="0" stop-color="#ffffff"/>
			<stop offset=".4" stop-color="#1a66b0"/>
			<stop offset="1" stop-color="#000000"/>
		</radialGradient>
		<radialGradient id="g49" cx="1961.7" cy="708.5" r="7.1" gradientUnits="userSpaceOnUse">
			<stop offset="0" stop-color="#ffffff"/>
			<stop offset=".4" stop-color="#1a66b0"/>
			<stop offset="1" stop-color="#000000"/>
		</radialGradient>
		<radialGradient id="g50" cx="909.3" cy="1300.3" r="7.1" gradientUnits="userSpaceOnUse">
			<stop offset="0" stop-color="#ffffff"/>
			<stop offset=".4" stop-color="#1a66b0"/>
			<stop offset="1" stop-color="#000000"/>
		</radialGradient>
		<radialGradient id="g51" cx="2963.3" cy="1321.6" r="6.9" gradientUnits="userSpaceOnUse">
			<stop offset="0" stop-color="#ffffff"/>
			<stop offset=".4" stop-color="#1a66b0"/>
			<stop offset="1" stop-color="#000000"/>
		</radialGradient>
		<radialGradient id="g52" cx="2449.6" cy="1098.9" r="7.1" gradientUnits="userSpaceOnUse">
			<stop offset="0" stop-color="#ffffff"/>
			<stop offset=".4" stop-color="#1a66b0"/>
			<stop offset="1" stop-color="#000000"/>
		</radialGradient>
		<radialGradient id="g53" cx="1149.3" cy="1073.1" r="7.3" gradientUnits="userSpaceOnUse">
			<stop offset="0" stop-color="#ffffff"/>
			<stop offset=".4" stop-color="#1a66b0"/>
			<stop offset="1" stop-color="#000000"/>
		</radialGradient>
		<radialGradient id="g54" cx="511" cy="1582.5" r="5" gradientUnits="userSpaceOnUse">
			<stop offset="0" stop-color="#ffffff"/>
			<stop offset=".4" stop-color="#1a66b0"/>
			<stop offset="1" stop-color="#000000"/>
		</radialGradient>
		<radialGradient id="g55" cx="720.5" cy="1056.1" r="7.6" gradientUnits="userSpaceOnUse">
			<stop offset="0" stop-color="#ffffff"/>
			<stop offset=".4" stop-color="#1a66b0"/>
			<stop offset="1" stop-color="#000000"/>
		</radialGradient>
		<radialGradient id="g56" cx="3134.9" cy="1510.2" r="5.5" gradientUnits="userSpaceOnUse">
			<stop offset="0" stop-color="#ffffff"/>
			<stop offset=".4" stop-color="#1a66b0"/>
			<stop offset="1" stop-color="#000000"/>
		</radialGradient>
		<radialGradient id="g57" cx="3062.1" cy="802.5" r="7.1" gradientUnits="userSpaceOnUse">
			<stop offset="0" stop-color="#ffffff"/>
			<stop offset=".4" stop-color="#1a66b0"/>
			<stop offset="1" stop-color="#000000"/>
		</radialGradient>
		<radialGradient id="g58" cx="2424" cy="588" r="7.1" gradientUnits="userSpaceOnUse">
			<stop offset="0" stop-color="#ffffff"/>
			<stop offset=".4" stop-color="#1a66b0"/>
			<stop offset="1" stop-color="#000000"/>
		</radialGradient>
		<radialGradient id="g59" cx="2813.6" cy="398.6" r="7.1" gradientUnits="userSpaceOnUse">
			<stop offset="0" stop-color="#ffffff"/>
			<stop offset=".4" stop-color="#1a66b0"/>
			<stop offset="1" stop-color="#000000"/>
		</radialGradient>
		<radialGradient id="g60" cx="3087.8" cy="49.8" r="11.6" gradientUnits="userSpaceOnUse">
			<stop offset="0" stop-color="#ffffff"/>
			<stop offset=".4" stop-color="#1a66b0"/>
			<stop offset="1" stop-color="#000000"/>
		</radialGradient>
		<radialGradient id="g61" cx="1089.3" cy="269.8" r="7.7" gradientUnits="userSpaceOnUse">
			<stop offset="0" stop-color="#ffffff"/>
			<stop offset=".4" stop-color="#1a66b0"/>
			<stop offset="1" stop-color="#000000"/>
		</radialGradient>
		<radialGradient id="g62" cx="660.2" cy="549.6" r="9.6" gradientUnits="userSpaceOnUse">
			<stop offset="0" stop-color="#ffffff"/>
			<stop offset=".4" stop-color="#1a66b0"/>
			<stop offset="1" stop-color="#000000"/>
		</radialGradient>
	</defs>
	<style>
		.s0 { mix-blend-mode: screen;fill: url(#g1) } 
		.s1 { mix-blend-mode: screen;fill: url(#g2) } 
		.s2 { mix-blend-mode: screen;fill: url(#g3) } 
		.s3 { mix-blend-mode: screen;fill: url(#g4) } 
		.s4 { mix-blend-mode: screen;fill: url(#g5) } 
		.s5 { mix-blend-mode: screen;fill: url(#g6) } 
		.s6 { mix-blend-mode: screen;fill: url(#g7) } 
		.s7 { mix-blend-mode: screen;fill: url(#g8) } 
		.s8 { mix-blend-mode: screen;fill: url(#g9) } 
		.s9 { mix-blend-mode: screen;fill: url(#g10) } 
		.s10 { mix-blend-mode: screen;fill: url(#g11) } 
		.s11 { mix-blend-mode: screen;fill: url(#g12) } 
		.s12 { mix-blend-mode: screen;fill: url(#g13) } 
		.s13 { mix-blend-mode: screen;fill: url(#g14) } 
		.s14 { mix-blend-mode: screen;fill: url(#g15) } 
		.s15 { mix-blend-mode: screen;fill: url(#g16) } 
		.s16 { mix-blend-mode: screen;fill: url(#g17) } 
		.s17 { mix-blend-mode: screen;fill: url(#g18) } 
		.s18 { mix-blend-mode: screen;fill: url(#g19) } 
		.s19 { mix-blend-mode: screen;fill: url(#g20) } 
		.s20 { mix-blend-mode: screen;fill: url(#g21) } 
		.s21 { mix-blend-mode: screen;fill: url(#g22) } 
		.s22 { mix-blend-mode: screen;fill: url(#g23) } 
		.s23 { mix-blend-mode: screen;fill: url(#g24) } 
		.s24 { mix-blend-mode: screen;fill: url(#g25) } 
		.s25 { mix-blend-mode: screen;fill: url(#g26) } 
		.s26 { mix-blend-mode: screen;fill: url(#g27) } 
		.s27 { mix-blend-mode: screen;fill: url(#g28) } 
		.s28 { mix-blend-mode: screen;fill: url(#g29) } 
		.s29 { mix-blend-mode: screen;fill: url(#g30) } 
		.s30 { mix-blend-mode: screen;fill: url(#g31) } 
		.s31 { mix-blend-mode: screen;fill: url(#g32) } 
		.s32 { mix-blend-mode: screen;fill: url(#g33) } 
		.s33 { mix-blend-mode: screen;fill: url(#g34) } 
		.s34 { mix-blend-mode: screen;fill: url(#g35) } 
		.s35 { mix-blend-mode: screen;fill: url(#g36) } 
		.s36 { mix-blend-mode: screen;fill: url(#g37) } 
		.s37 { mix-blend-mode: screen;fill: url(#g38) } 
		.s38 { mix-blend-mode: screen;fill: url(#g39) } 
		.s39 { mix-blend-mode: screen;fill: url(#g40) } 
		.s40 { mix-blend-mode: screen;fill: url(#g41) } 
		.s41 { mix-blend-mode: screen;fill: url(#g42) } 
		.s42 { mix-blend-mode: screen;fill: url(#g43) } 
		.s43 { mix-blend-mode: screen;fill: url(#g44) } 
		.s44 { mix-blend-mode: screen;fill: url(#g45) } 
		.s45 { mix-blend-mode: screen;fill: url(#g46) } 
		.s46 { mix-blend-mode: screen;fill: url(#g47) } 
		.s47 { mix-blend-mode: screen;fill: url(#g48) } 
		.s48 { mix-blend-mode: screen;fill: url(#g49) } 
		.s49 { mix-blend-mode: screen;fill: url(#g50) } 
		.s50 { mix-blend-mode: screen;fill: url(#g51) } 
		.s51 { mix-blend-mode: screen;fill: url(#g52) } 
		.s52 { mix-blend-mode: screen;fill: url(#g53) } 
		.s53 { mix-blend-mode: screen;fill: url(#g54) } 
		.s54 { mix-blend-mode: screen;fill: url(#g55) } 
		.s55 { mix-blend-mode: screen;fill: url(#g56) } 
		.s56 { mix-blend-mode: screen;fill: url(#g57) } 
		.s57 { mix-blend-mode: screen;fill: url(#g58) } 
		.s58 { mix-blend-mode: screen;fill: url(#g59) } 
		.s59 { mix-blend-mode: screen;fill: url(#g60) } 
		.s60 { mix-blend-mode: screen;fill: url(#g61) } 
		.s61 { mix-blend-mode: screen;fill: url(#g62) } 
	</style>
	<g id="Stars">
		<g id="&lt;Group&gt;">
			<path id="&lt;Path&gt;" class="s0" d="m110.9 164.2c-5.7 0-10.4-4.6-10.4-10.4 0-5.7 4.7-10.4 10.4-10.4 5.8 0 10.4 4.7 10.4 10.4 0 5.8-4.6 10.4-10.4 10.4z"/>
		</g>
		<g id="&lt;Group&gt;">
			<path id="&lt;Path&gt;" class="s1" d="m1457.2 217.9c-4.7 0-8.5-3.8-8.5-8.6 0-4.7 3.8-8.5 8.5-8.5 4.7 0 8.6 3.8 8.6 8.5 0 4.8-3.9 8.6-8.6 8.6z"/>
		</g>
		<g id="&lt;Group&gt;">
			<path id="&lt;Path&gt;" class="s2" d="m3070.9 301.8c-5.8 0-10.5-4.7-10.5-10.5 0-5.9 4.7-10.6 10.5-10.6 5.9 0 10.6 4.7 10.6 10.6 0 5.8-4.7 10.5-10.6 10.5z"/>
		</g>
		<g id="&lt;Group&gt;">
			<path id="&lt;Path&gt;" class="s3" d="m3341.1 774.8c-8.5 0-15.4-6.9-15.4-15.5 0-8.5 6.9-15.4 15.4-15.4 8.6 0 15.5 6.9 15.5 15.4 0 8.6-6.9 15.5-15.5 15.5z"/>
		</g>
		<g id="&lt;Group&gt;">
			<path id="&lt;Path&gt;" class="s4" d="m1029.3 771.4c-6.3 0-11.4-5.2-11.4-11.5 0-6.3 5.1-11.4 11.4-11.4 6.3 0 11.4 5.1 11.4 11.4 0 6.3-5.1 11.5-11.4 11.5z"/>
		</g>
		<g id="&lt;Group&gt;">
			<path id="&lt;Path&gt;" class="s5" d="m496.5 478.6c-6 0-10.8-4.9-10.8-10.9 0-5.9 4.8-10.8 10.8-10.8 6 0 10.8 4.9 10.8 10.8 0 6-4.8 10.9-10.8 10.9z"/>
		</g>
		<g id="&lt;Group&gt;">
			<path id="&lt;Path&gt;" class="s6" d="m2642.3 746.9c-4.7 0-8.5-3.8-8.5-8.5 0-4.8 3.8-8.6 8.5-8.6 4.8 0 8.6 3.8 8.6 8.6 0 4.7-3.8 8.5-8.6 8.5z"/>
		</g>
		<g id="&lt;Group&gt;">
			<path id="&lt;Path&gt;" class="s7" d="m2800.8 183.1c-4.8 0-8.6-3.8-8.6-8.5 0-4.8 3.8-8.6 8.6-8.6 4.7 0 8.5 3.8 8.5 8.6 0 4.7-3.8 8.5-8.5 8.5z"/>
		</g>
		<g id="&lt;Group&gt;">
			<path id="&lt;Path&gt;" class="s8" d="m2026.2 213.6c-4.7 0-8.5-3.9-8.5-8.6 0-4.7 3.8-8.6 8.5-8.6 4.8 0 8.6 3.9 8.6 8.6 0 4.7-3.8 8.6-8.6 8.6z"/>
		</g>
		<g id="&lt;Group&gt;">
			<path id="&lt;Path&gt;" class="s9" d="m2098.9 544.7c-4.7 0-8.5-3.8-8.5-8.5 0-4.8 3.8-8.6 8.5-8.6 4.7 0 8.6 3.8 8.6 8.6 0 4.7-3.9 8.5-8.6 8.5z"/>
		</g>
		<g id="&lt;Group&gt;">
			<path id="&lt;Path&gt;" class="s10" d="m913.4 192.7c-5.1 0-9.3-4.2-9.3-9.3 0-5.1 4.2-9.3 9.3-9.3 5.1 0 9.3 4.2 9.3 9.3 0 5.1-4.2 9.3-9.3 9.3z"/>
		</g>
		<g id="&lt;Group&gt;">
			<path id="&lt;Path&gt;" class="s11" d="m291.3 965.4c-4.7 0-8.5-3.9-8.5-8.6 0-4.7 3.8-8.6 8.5-8.6 4.7 0 8.6 3.9 8.6 8.6 0 4.7-3.9 8.6-8.6 8.6z"/>
		</g>
		<g id="&lt;Group&gt;">
			<path id="&lt;Path&gt;" class="s12" d="m3477.6 1362c-3.3 0-5.9-2.6-5.9-5.9 0-3.2 2.6-5.9 5.9-5.9 3.2 0 5.9 2.7 5.9 5.9 0 3.3-2.7 5.9-5.9 5.9z"/>
		</g>
		<g id="&lt;Group&gt;">
			<path id="&lt;Path&gt;" class="s13" d="m3611.9 228.6c-5.9 0-10.7-4.8-10.7-10.7 0-5.9 4.8-10.7 10.7-10.7 5.9 0 10.7 4.8 10.7 10.7 0 5.9-4.8 10.7-10.7 10.7z"/>
		</g>
		<g id="&lt;Group&gt;">
			<path id="&lt;Path&gt;" class="s14" d="m3779 72.5c-5 0-9-4.1-9-9 0-5 4-9.1 9-9.1 5 0 9 4.1 9 9.1 0 4.9-4 9-9 9z"/>
		</g>
		<g id="&lt;Group&gt;">
			<path id="&lt;Path&gt;" class="s15" d="m3324.5 110.4c-9.6 0-17.4-7.8-17.4-17.4 0-9.6 7.8-17.3 17.4-17.3 9.5 0 17.3 7.7 17.3 17.3 0 9.6-7.8 17.4-17.3 17.4z"/>
		</g>
		<g id="&lt;Group&gt;">
			<path id="&lt;Path&gt;" class="s16" d="m2325.5 84.4c-4.7 0-8.5-3.8-8.5-8.5 0-4.8 3.8-8.6 8.5-8.6 4.7 0 8.6 3.8 8.6 8.6 0 4.7-3.9 8.5-8.6 8.5z"/>
		</g>
		<g id="&lt;Group&gt;">
			<path id="&lt;Path&gt;" class="s17" d="m441.4 94.8c-5.9 0-10.7-4.8-10.7-10.7 0-5.9 4.8-10.7 10.7-10.7 5.9 0 10.7 4.8 10.7 10.7 0 5.9-4.8 10.7-10.7 10.7z"/>
		</g>
		<g id="&lt;Group&gt;">
			<path id="&lt;Path&gt;" class="s18" d="m106.5 477.1c-5.3 0-9.6-4.3-9.6-9.6 0-5.2 4.3-9.5 9.6-9.5 5.3 0 9.6 4.3 9.6 9.5 0 5.3-4.3 9.6-9.6 9.6z"/>
		</g>
		<g id="&lt;Group&gt;">
			<path id="&lt;Path&gt;" class="s19" d="m64.7 1379.2c-4.1 0-7.3-3.3-7.3-7.3 0-4.1 3.2-7.4 7.3-7.4 4 0 7.3 3.3 7.3 7.4 0 4-3.3 7.3-7.3 7.3z"/>
		</g>
		<g id="&lt;Group&gt;">
			<path id="&lt;Path&gt;" class="s20" d="m1649.6 570.8c-4.7 0-8.5-3.8-8.5-8.6 0-4.7 3.8-8.5 8.5-8.5 4.7 0 8.6 3.8 8.6 8.5 0 4.8-3.9 8.6-8.6 8.6z"/>
		</g>
		<g id="&lt;Group&gt;">
			<path id="&lt;Path&gt;" class="s21" d="m1726.7 88.8c-4.7 0-8.6-3.8-8.6-8.5 0-4.7 3.9-8.6 8.6-8.6 4.7 0 8.5 3.9 8.5 8.6 0 4.7-3.8 8.5-8.5 8.5z"/>
		</g>
		<g id="&lt;Group&gt;">
			<path id="&lt;Path&gt;" class="s22" d="m1145 88.5c-4.8 0-8.6-3.9-8.6-8.6 0-4.7 3.8-8.6 8.6-8.6 4.7 0 8.5 3.9 8.5 8.6 0 4.7-3.8 8.6-8.5 8.6z"/>
		</g>
		<g id="&lt;Group&gt;">
			<path id="&lt;Path&gt;" class="s23" d="m909.2 527.3c-6.9 0-12.4-5.5-12.4-12.4 0-6.9 5.5-12.4 12.4-12.4 6.9 0 12.4 5.5 12.4 12.4 0 6.9-5.5 12.4-12.4 12.4z"/>
		</g>
		<g id="&lt;Group&gt;">
			<path id="&lt;Path&gt;" class="s24" d="m668.7 280.1c-5.8 0-10.5-4.7-10.5-10.5 0-5.8 4.7-10.6 10.5-10.6 5.8 0 10.5 4.8 10.5 10.6 0 5.8-4.7 10.5-10.5 10.5z"/>
		</g>
		<g id="&lt;Group&gt;">
			<path id="&lt;Path&gt;" class="s25" d="m771.6 97.3c-5 0-9.1-4-9.1-9.1 0-5 4.1-9.1 9.1-9.1 5 0 9.1 4.1 9.1 9.1 0 5.1-4.1 9.1-9.1 9.1z"/>
		</g>
		<g id="&lt;Group&gt;">
			<path id="&lt;Path&gt;" class="s26" d="m380.9 251.3c-6.4 0-11.5-5.1-11.5-11.5 0-6.3 5.1-11.4 11.5-11.4 6.3 0 11.4 5.1 11.4 11.4 0 6.4-5.1 11.5-11.4 11.5z"/>
		</g>
		<g id="&lt;Group&gt;">
			<path id="&lt;Path&gt;" class="s27" d="m183.9 733.7c-4.8 0-8.6-3.8-8.6-8.6 0-4.8 3.8-8.6 8.6-8.6 4.7 0 8.6 3.8 8.6 8.6 0 4.8-3.9 8.6-8.6 8.6z"/>
		</g>
		<g id="&lt;Group&gt;">
			<path id="&lt;Path&gt;" class="s28" d="m3607.6 484.6c-7.3 0-13.2-5.9-13.2-13.2 0-7.3 5.9-13.2 13.2-13.2 7.3 0 13.2 5.9 13.2 13.2 0 7.3-5.9 13.2-13.2 13.2z"/>
		</g>
		<g id="&lt;Group&gt;">
			<path id="&lt;Path&gt;" class="s29" d="m3757.7 774.8c-11.1 0-20.1-9-20.1-20.1 0-11.1 9-20.1 20.1-20.1 11.1 0 20.1 9 20.1 20.1 0 11.1-9 20.1-20.1 20.1z"/>
		</g>
		<g id="&lt;Group&gt;">
			<path id="&lt;Path&gt;" class="s30" d="m3770.4 1123.9c-7.2 0-13.1-5.9-13.1-13.1 0-7.3 5.9-13.2 13.1-13.2 7.3 0 13.1 5.9 13.1 13.2 0 7.2-5.8 13.1-13.1 13.1z"/>
		</g>
		<g id="&lt;Group&gt;">
			<path id="&lt;Path&gt;" class="s31" d="m3306.4 1079c-5.8 0-10.4-4.7-10.4-10.4 0-5.8 4.6-10.5 10.4-10.5 5.8 0 10.5 4.7 10.5 10.5 0 5.7-4.7 10.4-10.5 10.4z"/>
		</g>
		<g id="&lt;Group&gt;">
			<path id="&lt;Path&gt;" class="s32" d="m2891 579.4c-4.8 0-8.6-3.9-8.6-8.6 0-4.7 3.8-8.6 8.6-8.6 4.7 0 8.5 3.9 8.5 8.6 0 4.7-3.8 8.6-8.5 8.6z"/>
		</g>
		<g id="&lt;Group&gt;">
			<path id="&lt;Path&gt;" class="s33" d="m2432.5 364.2c-4.7 0-8.5-3.8-8.5-8.5 0-4.7 3.8-8.6 8.5-8.6 4.7 0 8.6 3.9 8.6 8.6 0 4.7-3.9 8.5-8.6 8.5z"/>
		</g>
		<g id="&lt;Group&gt;">
			<path id="&lt;Path&gt;" class="s34" d="m373.4 1319.8c-4.1 0-7.4-3.3-7.4-7.4 0-4.1 3.3-7.4 7.4-7.4 4 0 7.4 3.3 7.4 7.4 0 4.1-3.4 7.4-7.4 7.4z"/>
		</g>
		<g id="&lt;Group&gt;">
			<path id="&lt;Path&gt;" class="s35" d="m1786.6 359.9c-4.7 0-8.6-3.8-8.6-8.5 0-4.8 3.9-8.6 8.6-8.6 4.7 0 8.5 3.8 8.5 8.6 0 4.7-3.8 8.5-8.5 8.5z"/>
		</g>
		<g id="&lt;Group&gt;">
			<path id="&lt;Path&gt;" class="s36" d="m1303.3 463.7c-4.9 0-8.9-4-8.9-8.9 0-4.9 4-8.9 8.9-8.9 4.9 0 8.9 4 8.9 8.9 0 4.9-4 8.9-8.9 8.9z"/>
		</g>
		<g id="&lt;Group&gt;">
			<path id="&lt;Path&gt;" class="s37" d="m2175.8 897.4c-4.7 0-8.6-3.8-8.6-8.6 0-4.7 3.9-8.5 8.6-8.5 4.7 0 8.5 3.8 8.5 8.5 0 4.8-3.8 8.6-8.5 8.6z"/>
		</g>
		<g id="&lt;Group&gt;">
			<path id="&lt;Path&gt;" class="s38" d="m1517.1 807.3c-4.8 0-8.6-3.9-8.6-8.6 0-4.7 3.8-8.5 8.6-8.5 4.7 0 8.5 3.8 8.5 8.5 0 4.7-3.8 8.6-8.5 8.6z"/>
		</g>
		<g id="&lt;Group&gt;">
			<path id="&lt;Path&gt;" class="s39" d="m660 910.9c-5.4 0-9.8-4.4-9.8-9.9 0-5.4 4.4-9.8 9.8-9.8 5.5 0 9.9 4.4 9.9 9.8 0 5.5-4.4 9.9-9.9 9.9z"/>
		</g>
		<g id="&lt;Group&gt;">
			<path id="&lt;Path&gt;" class="s40" d="m2522.7 187.5c-4.7 0-8.5-3.8-8.5-8.5 0-4.8 3.8-8.6 8.5-8.6 4.8 0 8.6 3.8 8.6 8.6 0 4.7-3.8 8.5-8.6 8.5z"/>
		</g>
		<g id="&lt;Group&gt;">
			<path id="&lt;Path&gt;" class="s41" d="m3315.5 435.2c-5.9 0-10.8-4.8-10.8-10.8 0-6 4.9-10.8 10.8-10.8 6 0 10.8 4.8 10.8 10.8 0 6-4.8 10.8-10.8 10.8z"/>
		</g>
		<g id="&lt;Group&gt;">
			<path id="&lt;Path&gt;" class="s42" d="m236.7 1651c-2.6 0-4.7-2.1-4.7-4.7 0-2.6 2.1-4.7 4.7-4.7 2.5 0 4.6 2.1 4.6 4.7 0 2.6-2.1 4.7-4.6 4.7z"/>
		</g>
		<g id="&lt;Group&gt;">
			<path id="&lt;Path&gt;" class="s43" d="m48.2 1810.4c-3.3 0-5.9-2.6-5.9-5.9 0-3.3 2.6-6 5.9-6 3.3 0 6 2.7 6 6 0 3.3-2.7 5.9-6 5.9z"/>
		</g>
		<g id="&lt;Group&gt;">
			<path id="&lt;Path&gt;" class="s44" d="m3764.7 1773c-3.6 0-6.6-3-6.6-6.6 0-3.7 3-6.6 6.6-6.6 3.7 0 6.6 2.9 6.6 6.6 0 3.6-2.9 6.6-6.6 6.6z"/>
		</g>
		<g id="&lt;Group&gt;">
			<path id="&lt;Path&gt;" class="s45" d="m3761.2 1422.7c-3.9 0-7-3.2-7-7.1 0-3.9 3.1-7.1 7-7.1 3.9 0 7.1 3.2 7.1 7.1 0 3.9-3.2 7.1-7.1 7.1z"/>
		</g>
		<g id="&lt;Group&gt;">
			<path id="&lt;Path&gt;" class="s46" d="m3589.4 1219.8c-5.5 0-10-4.5-10-10 0-5.5 4.5-10 10-10 5.6 0 10 4.5 10 10 0 5.5-4.4 10-10 10z"/>
		</g>
		<g id="&lt;Group&gt;">
			<path id="&lt;Path&gt;" class="s47" d="m2852.1 1013c-4.8 0-8.6-3.8-8.6-8.6 0-4.7 3.8-8.5 8.6-8.5 4.7 0 8.5 3.8 8.5 8.5 0 4.8-3.8 8.6-8.5 8.6z"/>
		</g>
		<g id="&lt;Group&gt;">
			<path id="&lt;Path&gt;" class="s48" d="m1961.7 717.1c-4.7 0-8.5-3.9-8.5-8.6 0-4.7 3.8-8.6 8.5-8.6 4.7 0 8.6 3.9 8.6 8.6 0 4.7-3.9 8.6-8.6 8.6z"/>
		</g>
		<g id="&lt;Group&gt;">
			<path id="&lt;Path&gt;" class="s49" d="m909.3 1308.9c-4.8 0-8.6-3.9-8.6-8.6 0-4.7 3.8-8.6 8.6-8.6 4.7 0 8.5 3.9 8.5 8.6 0 4.7-3.8 8.6-8.5 8.6z"/>
		</g>
		<g id="&lt;Group&gt;">
			<path id="&lt;Path&gt;" class="s50" d="m2963.3 1330c-4.6 0-8.3-3.8-8.3-8.4 0-4.6 3.7-8.3 8.3-8.3 4.6 0 8.4 3.7 8.4 8.3 0 4.6-3.8 8.4-8.4 8.4z"/>
		</g>
		<g id="&lt;Group&gt;">
			<path id="&lt;Path&gt;" class="s51" d="m2449.6 1107.5c-4.7 0-8.5-3.8-8.5-8.6 0-4.7 3.8-8.5 8.5-8.5 4.8 0 8.6 3.8 8.6 8.5 0 4.8-3.8 8.6-8.6 8.6z"/>
		</g>
		<g id="&lt;Group&gt;">
			<path id="&lt;Path&gt;" class="s52" d="m1149.3 1082c-4.9 0-8.9-4-8.9-8.9 0-4.9 4-8.9 8.9-8.9 4.9 0 8.9 4 8.9 8.9 0 4.9-4 8.9-8.9 8.9z"/>
		</g>
		<g id="&lt;Group&gt;">
			<path id="&lt;Path&gt;" class="s53" d="m511 1588.5c-3.3 0-6.1-2.7-6.1-6 0-3.4 2.8-6.1 6.1-6.1 3.3 0 6 2.7 6 6.1 0 3.3-2.7 6-6 6z"/>
		</g>
		<g id="&lt;Group&gt;">
			<path id="&lt;Path&gt;" class="s54" d="m720.5 1065.3c-5.1 0-9.2-4.1-9.2-9.2 0-5.1 4.1-9.2 9.2-9.2 5.1 0 9.2 4.1 9.2 9.2 0 5.1-4.1 9.2-9.2 9.2z"/>
		</g>
		<g id="&lt;Group&gt;">
			<path id="&lt;Path&gt;" class="s55" d="m3134.9 1516.9c-3.7 0-6.7-3-6.7-6.7 0-3.6 3-6.6 6.7-6.6 3.7 0 6.7 3 6.7 6.6 0 3.7-3 6.7-6.7 6.7z"/>
		</g>
		<g id="&lt;Group&gt;">
			<path id="&lt;Path&gt;" class="s56" d="m3062.1 811.1c-4.7 0-8.5-3.8-8.5-8.6 0-4.7 3.8-8.5 8.5-8.5 4.8 0 8.6 3.8 8.6 8.5 0 4.8-3.8 8.6-8.6 8.6z"/>
		</g>
		<g id="&lt;Group&gt;">
			<path id="&lt;Path&gt;" class="s57" d="m2424 596.5c-4.7 0-8.6-3.8-8.6-8.5 0-4.7 3.9-8.6 8.6-8.6 4.7 0 8.5 3.9 8.5 8.6 0 4.7-3.8 8.5-8.5 8.5z"/>
		</g>
		<g id="&lt;Group&gt;">
			<path id="&lt;Path&gt;" class="s58" d="m2813.6 407.1c-4.7 0-8.6-3.8-8.6-8.5 0-4.8 3.9-8.6 8.6-8.6 4.7 0 8.5 3.8 8.5 8.6 0 4.7-3.8 8.5-8.5 8.5z"/>
		</g>
		<g id="&lt;Group&gt;">
			<path id="&lt;Path&gt;" class="s59" d="m3087.8 63.9c-7.8 0-14.1-6.3-14.1-14.1 0-7.8 6.3-14.1 14.1-14.1 7.8 0 14.1 6.3 14.1 14.1 0 7.8-6.3 14.1-14.1 14.1z"/>
		</g>
		<g id="&lt;Group&gt;">
			<path id="&lt;Path&gt;" class="s60" d="m1089.3 279.1c-5.1 0-9.2-4.2-9.2-9.3 0-5.1 4.1-9.3 9.2-9.3 5.2 0 9.3 4.2 9.3 9.3 0 5.1-4.1 9.3-9.3 9.3z"/>
		</g>
		<g id="&lt;Group&gt;">
			<path id="&lt;Path&gt;" class="s61" d="m660.2 561.2c-6.4 0-11.6-5.2-11.6-11.6 0-6.4 5.2-11.6 11.6-11.6 6.4 0 11.6 5.2 11.6 11.6 0 6.4-5.2 11.6-11.6 11.6z"/>
		</g>
	</g>
</svg>