<?xml version="1.0" standalone="no"?>
<!DOCTYPE svg PUBLIC "-//W3C//DTD SVG 20010904//EN"
 "http://www.w3.org/TR/2001/REC-SVG-20010904/DTD/svg10.dtd">
<svg version="1.0" xmlns="http://www.w3.org/2000/svg"
 width="512.000000pt" height="512.000000pt" viewBox="0 0 512.000000 512.000000"
 preserveAspectRatio="xMidYMid meet">

<g transform="translate(0.000000,512.000000) scale(0.100000,-0.100000)"
fill="#000000" stroke="none">
<path d="M1604 3887 c-181 -28 -279 -48 -297 -60 -39 -25 -54 -84 -33 -129 15
-31 64 -62 431 -274 227 -131 412 -240 410 -242 -5 -5 -1007 -272 -1022 -272
-8 0 -116 95 -241 211 -125 116 -243 222 -262 235 -65 44 -106 42 -317 -15
-106 -28 -202 -56 -216 -62 -30 -14 -57 -59 -57 -97 0 -36 0 -36 323 -440 147
-183 267 -335 267 -338 0 -2 -45 -125 -100 -273 -57 -154 -100 -284 -100 -304
0 -46 40 -94 83 -102 41 -8 218 42 280 78 57 34 99 85 172 212 31 55 58 101
59 102 1 1 42 -11 91 -26 162 -52 266 -65 505 -64 230 1 406 19 656 68 70 13
130 23 132 20 2 -2 -92 -172 -211 -377 -118 -205 -220 -383 -226 -395 -35 -68
14 -152 89 -153 37 0 430 149 577 219 150 72 279 175 368 293 25 33 129 199
230 369 102 169 193 310 203 313 9 3 271 73 582 156 311 83 601 162 646 175
235 67 389 171 462 310 38 72 38 171 0 237 -58 97 -183 177 -342 218 -47 12
-110 38 -155 65 -222 130 -425 173 -616 131 -33 -7 -424 -111 -868 -230 -445
-119 -812 -216 -817 -216 -5 0 -205 113 -445 252 l-437 252 243 38 c343 52
476 50 649 -10 70 -24 102 -41 319 -160 167 -92 175 -95 200 -81 14 8 27 23
29 33 10 49 -5 61 -190 164 -321 178 -395 202 -628 208 -143 3 -176 0 -426
-39z m2665 -333 c36 -9 86 -26 111 -37 l45 -19 -90 -25 c-174 -47 -194 -53
-209 -69 -34 -33 -6 -94 42 -94 14 0 110 23 215 51 185 50 190 51 226 35 20
-9 70 -25 113 -35 92 -24 165 -60 218 -107 48 -43 62 -87 48 -144 -12 -48 -43
-71 -150 -113 -61 -25 -1279 -357 -1286 -351 -2 1 7 21 20 43 19 34 31 43 73
55 28 8 298 81 600 161 303 81 558 151 567 156 48 25 23 109 -31 109 -21 0
-966 -247 -1093 -286 -10 -3 -19 2 -23 16 -3 11 -15 25 -27 31 -50 27 -52 24
-389 -539 -177 -295 -336 -557 -352 -582 -49 -72 -176 -192 -259 -243 -65 -41
-566 -251 -576 -242 -2 1 166 295 373 653 206 358 375 660 375 671 0 26 -34
61 -58 61 -24 0 -45 -18 -71 -62 -18 -31 -32 -41 -74 -53 -54 -15 -857 -230
-1250 -335 -210 -55 -231 -59 -268 -49 -21 7 -39 14 -39 17 0 3 27 51 60 108
82 140 80 204 -7 240 -31 14 -43 12 -151 -17 -64 -17 -122 -36 -129 -42 -7 -7
-14 -23 -16 -37 -3 -19 -13 -28 -41 -38 -35 -11 -39 -10 -56 10 -10 13 -144
180 -298 373 -173 215 -276 352 -269 356 39 19 339 91 359 85 13 -3 140 -114
282 -246 168 -155 267 -240 281 -240 11 0 475 122 1030 270 1291 346 1895 507
1920 513 49 11 194 6 254 -9z m-3242 -1111 c-118 -210 -276 -475 -296 -496
-27 -30 -101 -74 -101 -60 1 5 45 125 98 268 93 248 98 260 122 258 14 -2 57
6 95 16 82 23 88 23 82 14z m1514 -32 l-20 -38 -134 -26 c-165 -32 -421 -70
-443 -65 -14 3 572 166 604 167 9 1 7 -10 -7 -38z"/>
<path d="M3622 3274 c-43 -30 -20 -104 33 -104 53 0 76 74 33 104 -12 9 -27
16 -33 16 -6 0 -21 -7 -33 -16z"/>
<path d="M3262 3178 c-21 -27 -22 -55 -4 -78 20 -25 63 -30 87 -10 18 15 20
71 3 88 -16 16 -73 15 -86 0z"/>
<path d="M2909 3079 c-36 -36 -6 -99 46 -99 48 0 73 70 37 103 -25 23 -58 21
-83 -4z"/>
<path d="M2565 2986 c-29 -29 -31 -43 -9 -74 10 -14 26 -22 44 -22 72 0 82 94
13 115 -17 4 -29 -1 -48 -19z"/>
<path d="M2206 2888 c-9 -12 -16 -30 -16 -40 0 -24 35 -58 60 -58 27 0 60 35
60 63 0 53 -75 77 -104 35z"/>
<path d="M1860 2800 c-25 -25 -26 -62 -2 -83 39 -35 102 -9 102 41 0 28 -34
62 -60 62 -11 0 -29 -9 -40 -20z"/>
</g>
</svg>
