<svg width="380" height="400" viewBox="0 0 380 400" fill="none" xmlns="http://www.w3.org/2000/svg">
<g clip-path="url(#clip0_1_3)">
<path fill-rule="evenodd" clip-rule="evenodd" d="M347.592 176.952C354.568 175.602 361.142 172.37 365.37 166.242C377.554 148.584 351.34 133.669 340.071 138.491C328.802 143.314 312.24 165.15 316.887 171.333C318.74 173.798 324.888 176.296 332.384 177.288L311.261 197.218L330.012 212.198L347.592 176.952Z" fill="#DEAE93"/>
<path fill-rule="evenodd" clip-rule="evenodd" d="M346.026 181.867C356.744 173.277 369.15 171.495 371.864 165.998C373.674 162.332 373.404 158.939 371.056 155.817C374.468 148.41 371.638 141.84 362.567 136.107C348.96 127.506 337.183 126.603 331.353 140.658C334.382 143.077 338.913 144.903 342.47 150.818C343.598 152.695 343.271 155.458 341.487 159.107L343.772 160.933C348.926 159.028 352.191 159.424 353.568 162.12C354.945 164.816 353.544 167.574 349.366 170.394L343.596 179.926L346.026 181.867Z" fill="#443204"/>
<path fill-rule="evenodd" clip-rule="evenodd" d="M43.2605 233.604C71.98 245.585 92.9052 253.245 106.036 256.584C128.52 262.3 148.282 266.571 155.645 267.581C173.203 269.991 173.481 244.59 164.7 241.489C151.408 236.797 111.994 230.077 46.4569 221.33L43.2605 233.604Z" fill="#DEAE93"/>
<path fill-rule="evenodd" clip-rule="evenodd" d="M61.5551 270.3L160.562 278.957C178.943 281.645 178.674 242.165 169.514 238.887C148.716 231.446 72.5609 221.762 66.3646 219.545L61.5551 270.3Z" fill="#2F3676"/>
<path fill-rule="evenodd" clip-rule="evenodd" d="M88.2649 344.439C97.2355 335.533 127.065 303.65 138.795 287.111C142.166 282.358 145.389 277.732 148.383 273.367C157.283 260.393 134.953 241.879 127.023 254.655C107.272 286.473 81.1545 332.403 78.7849 336.275C75.4639 341.701 82.6271 350.036 88.2649 344.439Z" fill="#DEAE93"/>
<path fill-rule="evenodd" clip-rule="evenodd" d="M92.5973 341.947C91.0461 344.734 89.7056 346.607 88.5759 347.567C87.2018 348.735 85.0021 350.21 81.9769 351.993C80.6221 350.399 68.447 336.073 45.4513 309.016C48.1944 304.761 50.7356 303.711 53.075 305.867C55.4144 308.023 57.379 309.796 58.9689 311.186L84.8507 323.594C85.3488 323.832 85.559 324.43 85.3202 324.928C85.3161 324.936 85.3119 324.945 85.3076 324.953L83.2842 328.884C84.138 331.995 85.1567 334.247 86.3403 335.639C87.3019 336.771 89.087 337.945 91.6954 339.162C92.6964 339.629 93.1292 340.819 92.6622 341.82C92.6421 341.863 92.6204 341.906 92.5973 341.947Z" fill="#E4E4E4"/>
<path fill-rule="evenodd" clip-rule="evenodd" d="M49.14 240.696C46.6 242.625 44.6197 243.801 43.1994 244.227C41.4718 244.744 38.8648 245.211 35.3782 245.628C34.7782 243.624 29.3854 225.613 19.1999 191.596C23.4214 188.802 26.1701 188.862 27.446 191.777C28.7219 194.691 29.8085 197.104 30.7059 199.016L49.4212 220.777C49.7813 221.195 49.7338 221.827 49.315 222.187C49.3079 222.193 49.3006 222.199 49.2933 222.205L45.8608 224.992C45.3927 228.184 45.4208 230.655 45.945 232.406C46.371 233.828 47.5337 235.621 49.4333 237.783C50.1623 238.613 50.0805 239.877 49.2506 240.606C49.2148 240.637 49.178 240.667 49.14 240.696Z" fill="#E4E4E4"/>
<path fill-rule="evenodd" clip-rule="evenodd" d="M226.2 219.133L186.658 217.526C178.442 213.95 170.981 211.708 164.278 210.8C162.427 210.92 159.553 211.863 164.268 215.071C168.984 218.278 173.8 221.864 173.203 223.869C172.605 225.874 168.469 225.539 168.075 228.573C167.812 230.596 174.446 230.296 187.975 227.673L220.831 237.153L226.2 219.133ZM321.386 296.205L305.008 283.226C289.092 323.824 280.74 345.44 279.953 348.073C278.182 353.998 268.905 357.765 264.339 360.125C267.763 366.766 274.25 357.482 278.473 365.979C282.329 373.735 282.864 382.635 293.447 383.924C294.748 384.082 297.32 382.82 296.277 379.395C293.677 370.861 290.904 357.344 291.598 354.179C292.546 349.863 302.475 330.538 321.386 296.205Z" fill="#DEAE93"/>
<path fill-rule="evenodd" clip-rule="evenodd" d="M329.715 190.627L323.885 184.071C281.519 185.702 237.991 219.078 189.661 216.571L189.734 231.646C248.31 267.626 302.057 227.437 329.715 190.627Z" fill="#D1C6B8"/>
<path fill-rule="evenodd" clip-rule="evenodd" d="M291.344 299.058C264.254 277.418 244.327 261.5 231.564 251.305C228.832 249.123 232.498 245.589 234.483 243.914C257.39 224.584 294.96 214.033 321.08 181.334L340.484 192.405C336.422 226.736 318.795 258.918 291.344 299.058Z" fill="#DDE3E9"/>
<path fill-rule="evenodd" clip-rule="evenodd" d="M344.003 232.151C347.083 233.432 350.407 233.337 353.976 231.867C369.363 225.529 372.089 217.45 366.997 210.012C361.906 202.573 352.513 202.014 341.782 193.442C341.198 192.976 340.635 192.585 340.091 192.271L334.446 188.267C277.029 228.384 244.783 259.992 237.708 283.09L284.759 320.676C282.354 329.403 280.653 337.004 279.655 343.477L292.476 353.718C324.847 315.668 342.023 275.146 344.003 232.151Z" fill="#D9CDBE"/>
<path fill-rule="evenodd" clip-rule="evenodd" d="M296.048 285.534C284.678 296.733 275.095 303.798 267.298 306.728L284.759 320.676C287.565 310.496 291.327 298.782 296.048 285.534Z" fill="black" fill-opacity="0.1"/>
<path d="M156 230L231 250L249 265.5C261.5 277 284.4 302.7 276 313.5C267.6 324.3 251.833 321.333 245 318.5C217.833 303.167 162.8 272.2 160 271C157.2 269.8 154.5 273.167 153.5 275L114.5 331.5L79.5 302.5C94.3333 285.667 124.9 249.8 128.5 241C132.1 232.2 148.333 230 156 230Z" fill="#5C63AB" stroke="#5C63AB"/>
</g>
<defs>
<clipPath id="clip0_1_3">
<rect width="380" height="400" fill="white"/>
</clipPath>
</defs>
</svg>
