<svg width="572" height="534" viewBox="0 0 572 534" fill="none" xmlns="http://www.w3.org/2000/svg">
<path d="M306.497 352.087C306.403 357.033 307.48 361.931 309.64 366.381C328.961 400.063 379.704 375.526 365.3 339.465L325.342 256.832C320.552 246.736 312.142 238.851 301.795 234.753C268.556 220.58 231.904 254.484 243.407 288.729C179.21 334.115 254.486 422.102 309.46 366.008" fill="#FEFEFE"/>
<path d="M252.558 299.29C248.748 296.352 245.651 292.609 243.486 288.323Z" fill="#FEFEFE"/>
<path d="M387.833 230.803C386.481 227.248 384.323 224.007 381.537 221.345C358.37 201.912 329.931 231.601 350.343 253.911L401.976 303.37C408.22 309.434 416.361 313.052 424.77 313.5C452.073 315.661 467.974 282.657 450.111 260.948C481.976 213.142 404.116 168.321 381.77 221.568" fill="#FEFEFE"/>
<path d="M440.684 255.597C444.191 256.783 447.429 258.714 450.172 261.257Z" fill="#FEFEFE"/>
<path d="M404.701 264.505C409.585 260.146 413.368 254.694 415.743 248.594C431.039 199.538 361.57 172.381 339.541 218.806L295.318 331.935C289.833 345.666 289.749 360.921 295.084 374.649C311.241 419.655 377.119 424.71 399.997 382.733C501.8 404.184 519.438 251.969 415.543 249.104" fill="#FEFEFE"/>
<path d="M402.008 364.351C402.587 370.692 401.742 377.065 399.531 383.021Z" fill="#FEFEFE"/>
<path fill-rule="evenodd" clip-rule="evenodd" d="M426.666 200.818C434.156 199.369 441.214 195.902 445.755 189.329C458.838 170.389 430.696 154.397 418.596 159.57C406.497 164.744 388.713 188.165 393.701 194.795C395.69 197.439 402.29 200.117 410.338 201.18L387.657 222.558L407.787 238.62L426.666 200.818Z" fill="#DEAE93"/>
<path fill-rule="evenodd" clip-rule="evenodd" d="M424.983 206.092C436.491 196.877 449.812 194.965 452.727 189.068C454.67 185.137 454.381 181.497 451.86 178.149C455.524 170.205 452.487 163.158 442.748 157.011C428.14 147.789 415.496 146.821 409.234 161.896C412.486 164.491 417.351 166.448 421.169 172.792C422.38 174.805 422.028 177.768 420.112 181.682L422.565 183.639C428.099 181.596 431.605 182.02 433.083 184.911C434.561 187.803 433.057 190.761 428.57 193.786L422.373 204.01L424.983 206.092Z" fill="#443204"/>
<path fill-rule="evenodd" clip-rule="evenodd" d="M99.9115 261.579C130.747 274.429 153.214 282.644 167.313 286.224C191.453 292.355 212.671 296.935 220.577 298.019C239.429 300.603 239.728 273.361 230.299 270.036C216.028 265.003 173.71 257.796 103.343 248.415L99.9115 261.579Z" fill="#DEAE93"/>
<path fill-rule="evenodd" clip-rule="evenodd" d="M119.554 300.935L225.856 310.219C245.591 313.102 245.303 270.76 235.467 267.244C213.137 259.264 131.371 248.878 124.718 246.5L119.554 300.935Z" fill="#2F3676"/>
<path fill-rule="evenodd" clip-rule="evenodd" d="M106.227 269.188C103.501 271.256 101.376 272.518 99.8512 272.973C97.9972 273.528 95.1991 274.028 91.457 274.474C90.8124 272.324 85.0194 253.006 74.0781 216.52C78.6084 213.525 81.5586 213.59 82.9289 216.716C84.2991 219.842 85.4661 222.43 86.4298 224.48L106.523 247.825C106.91 248.274 106.859 248.951 106.41 249.337C106.402 249.344 106.394 249.35 106.386 249.356L102.703 252.344C102.201 255.767 102.232 258.418 102.795 260.296C103.253 261.822 104.501 263.745 106.541 266.064C107.323 266.955 107.236 268.31 106.345 269.092C106.307 269.125 106.267 269.158 106.227 269.188Z" fill="#414CA8"/>
<path fill-rule="evenodd" clip-rule="evenodd" d="M148.228 380.449C157.86 370.896 189.888 336.701 202.484 318.961C206.103 313.864 209.565 308.903 212.78 304.221C222.336 290.306 198.366 270.454 189.85 284.157C168.642 318.281 140.596 367.542 138.051 371.695C134.485 377.515 142.174 386.452 148.228 380.449Z" fill="#DEAE93"/>
<path fill-rule="evenodd" clip-rule="evenodd" d="M152.883 377.775C151.217 380.764 149.777 382.773 148.564 383.803C147.089 385.056 144.726 386.638 141.478 388.551C140.023 386.841 126.952 371.478 102.264 342.46C105.21 337.896 107.938 336.77 110.45 339.082C112.962 341.395 115.071 343.296 116.778 344.787L144.567 358.091C145.102 358.347 145.328 358.987 145.071 359.521C145.067 359.53 145.062 359.539 145.058 359.549L142.884 363.765C143.801 367.101 144.894 369.516 146.165 371.01C147.198 372.223 149.114 373.483 151.915 374.788C152.99 375.288 153.454 376.565 152.953 377.638C152.931 377.685 152.908 377.73 152.883 377.775Z" fill="#646CBC"/>
<path d="M220.966 257.729L301.485 279.164L320.808 295.782C334.227 308.111 358.809 335.665 349.789 347.246C340.77 358.827 323.843 355.648 316.507 352.611C287.342 336.174 228.261 302.977 225.255 301.691C222.249 300.404 219.35 304.015 218.276 305.981L176.398 366.567L138.825 335.477C154.753 317.426 187.574 278.964 191.44 269.527C195.306 260.091 212.735 257.73 220.966 257.729Z" fill="#5C63AB" stroke="#5C63AB"/>
<path fill-rule="evenodd" clip-rule="evenodd" d="M296.339 246.056L253.882 244.337C245.061 240.503 237.051 238.099 229.853 237.126C227.865 237.255 224.779 238.266 229.842 241.706C234.905 245.146 240.076 248.991 239.434 251.142C238.793 253.293 234.351 252.933 233.928 256.188C233.645 258.358 240.768 258.035 255.295 255.22L290.571 265.384L296.339 246.056ZM398.532 328.708L380.948 314.789C363.853 358.336 354.883 381.521 354.038 384.346C352.135 390.7 342.174 394.743 337.272 397.275C340.947 404.397 347.913 394.439 352.447 403.552C356.585 411.869 357.159 421.416 368.522 422.796C369.919 422.966 372.681 421.612 371.561 417.938C368.77 408.785 365.795 394.288 366.541 390.894C367.559 386.264 378.222 365.536 398.532 328.708Z" fill="#DEAE93"/>
<path fill-rule="evenodd" clip-rule="evenodd" d="M407.473 215.476L401.214 208.446C355.728 210.2 308.99 246.002 257.1 243.319L257.176 259.487C320.063 298.07 377.773 254.959 407.473 215.476Z" fill="#D1C6B8"/>
<path fill-rule="evenodd" clip-rule="evenodd" d="M366.265 331.778C337.184 308.573 315.792 291.504 302.089 280.571C299.157 278.231 303.093 274.441 305.224 272.644C329.821 251.91 370.159 240.589 398.208 205.517L419.038 217.387C414.674 254.208 395.743 288.724 366.265 331.778Z" fill="#DDE3E9"/>
<path fill-rule="evenodd" clip-rule="evenodd" d="M422.816 260.016C426.122 261.389 429.691 261.287 433.524 259.71C450.044 252.911 452.972 244.246 447.507 236.269C442.041 228.292 431.957 227.694 420.437 218.502C419.81 218.002 419.205 217.583 418.621 217.246L412.562 212.952C350.911 255.985 316.287 289.888 308.688 314.661L359.199 354.965C356.615 364.325 354.788 372.477 353.716 379.419L367.479 390.401C402.239 349.589 420.685 306.128 422.816 260.016Z" fill="#D9CDBE"/>
<path fill-rule="evenodd" clip-rule="evenodd" d="M371.327 317.273C359.118 329.285 348.828 336.863 340.457 340.006L359.202 354.963C362.216 344.045 366.257 331.481 371.327 317.273Z" fill="black" fill-opacity="0.1"/>
<g opacity="0.9">
<path d="M425.399 367.323C420.264 364.648 414.57 363.226 408.781 363.171C363.414 365.879 362.702 431.843 408 435.528L515.422 436.687C528.497 436.925 539.176 438.612 557.501 424.06C587.001 396.56 562.001 355.56 528.001 363.177C513.87 272.252 382.441 305.322 412.601 392.156" fill="#FDFDFD"/>
</g>
<path d="M95.6016 133.105C90.7969 130.567 85.4603 129.202 80.0273 129.12C37.434 131.418 36.4135 193.325 78.9079 197.026L179.722 198.688C191.993 198.981 203.885 194.631 213.021 186.507C243.359 160.91 228.225 108.194 188.945 102.545C176.168 17.1328 52.6393 47.4676 80.4818 129.127" fill="white"/>
<path d="M174.062 106.301C178.828 104.015 184.03 102.828 189.304 102.824Z" fill="white"/>
<path d="M175.841 461.228C174.045 460.424 172.052 459.988 170.024 459.957C154.13 460.641 153.809 480.144 169.672 481.351L207.298 481.972C211.878 482.076 216.313 480.716 219.715 478.166C231.013 470.13 225.314 453.506 210.648 451.689C205.798 424.766 159.724 434.205 170.194 459.96" fill="white"/>
</svg>
